<?xml version="1.0" standalone="no"?>
<!DOCTYPE svg PUBLIC "-//W3C//DTD SVG 20010904//EN"
 "http://www.w3.org/TR/2001/REC-SVG-20010904/DTD/svg10.dtd">
<svg version="1.0" xmlns="http://www.w3.org/2000/svg"
 width="1280.000000pt" height="1280.000000pt" viewBox="0 0 1280.000000 1280.000000"
 preserveAspectRatio="xMidYMid meet">
<metadata>
Created by potrace 1.16, written by Peter Selinger 2001-2019
</metadata>
<g transform="translate(0.000000,1280.000000) scale(0.100000,-0.100000)"
fill="#000000" stroke="none">
<path d="M5728 12483 c-383 -337 -560 -506 -1328 -1268 -1056 -1047 -1251
-1247 -1550 -1590 -183 -210 -421 -537 -578 -795 -67 -111 -302 -518 -302
-523 0 -3 -50 -107 -110 -232 -61 -124 -110 -228 -110 -230 0 -5 -162 -341
-240 -495 -135 -270 -195 -466 -207 -675 -13 -238 62 -421 220 -544 153 -117
350 -122 536 -12 94 56 167 118 358 305 288 280 452 469 802 921 274 353 443
523 1191 1200 402 365 560 526 720 740 163 219 311 474 329 568 16 88 -28 144
-88 113 -38 -20 -44 -29 -102 -147 -164 -335 -373 -605 -719 -928 -123 -114
-135 -124 -138 -101 -23 197 -80 414 -143 550 -43 91 -64 120 -87 120 -20 0
-10 -107 25 -254 22 -94 26 -136 27 -276 1 -98 -5 -201 -13 -255 -13 -80 -17
-93 -45 -115 -17 -14 -112 -94 -211 -179 -484 -414 -586 -518 -1022 -1041
-229 -276 -415 -483 -525 -585 -376 -351 -446 -408 -546 -445 -97 -37 -171
-21 -242 50 -140 140 -157 392 -49 715 50 151 295 649 484 985 87 154 327 555
416 694 311 487 702 955 1318 1581 322 326 454 465 740 775 294 319 343 368
581 580 297 266 512 436 735 581 161 105 187 118 266 130 113 18 392 6 584
-25 172 -28 221 -31 245 -16 30 18 -314 161 -494 205 -235 58 -413 37 -598
-68 l-77 -45 32 39 c18 21 35 39 38 39 4 0 19 16 33 35 l27 35 -25 0 c-19 0
-63 -33 -158 -117z"/>
<path d="M7562 12110 c2 -17 26 -28 118 -59 63 -21 192 -74 285 -116 94 -43
209 -95 256 -116 79 -36 296 -114 579 -209 63 -21 180 -62 260 -90 80 -29 163
-58 185 -65 101 -34 319 -131 530 -237 160 -80 303 -161 555 -313 74 -45 207
-121 295 -170 243 -132 361 -215 528 -372 312 -292 389 -436 498 -928 72 -328
136 -890 174 -1525 4 -58 18 -226 31 -375 20 -209 27 -373 34 -730 12 -650 38
-990 79 -1045 42 -57 96 -21 111 76 16 103 30 575 30 1017 l0 428 -44 442
c-24 243 -54 550 -66 682 -11 132 -27 269 -35 305 -8 36 -30 162 -50 280 -143
852 -239 1085 -600 1445 -206 207 -402 358 -675 520 -63 37 -176 107 -250 155
-74 47 -171 107 -215 132 -384 219 -910 419 -1465 558 -209 52 -298 80 -460
142 -257 99 -410 148 -519 169 -140 26 -173 25 -169 -1z"/>
<path d="M5819 11003 c-224 -271 -391 -592 -363 -700 21 -82 109 -90 158 -15
14 20 41 93 61 161 64 221 165 444 250 556 19 25 35 56 35 70 0 21 -5 25 -30
25 -26 0 -41 -14 -111 -97z"/>
<path d="M6601 11013 c-10 -20 -53 -173 -83 -298 -31 -129 -67 -369 -79 -520
-6 -77 -9 -276 -7 -442 l3 -301 -95 -50 c-121 -63 -182 -86 -304 -117 -202
-51 -391 -29 -554 65 -80 46 -130 52 -163 19 -46 -46 1 -142 91 -189 19 -10
67 -28 105 -39 l70 -21 1 -68 c1 -62 40 -233 80 -344 8 -22 13 -43 11 -44 -2
-2 -80 -24 -174 -49 -94 -24 -211 -56 -259 -70 -49 -15 -127 -37 -174 -51 -90
-26 -273 -90 -303 -106 -10 -5 -17 -17 -15 -26 2 -13 15 -15 68 -13 77 3 370
40 600 76 91 14 201 30 245 35 105 13 548 30 557 22 4 -4 -28 -30 -70 -59
-584 -393 -863 -590 -1057 -747 -118 -96 -134 -106 -190 -116 -217 -40 -408
-5 -577 107 -168 111 -262 300 -238 481 5 43 4 55 -8 60 -24 9 -43 -10 -66
-63 -17 -42 -20 -71 -20 -185 0 -127 1 -139 30 -207 101 -244 312 -403 597
-448 l38 -6 -39 -43 c-134 -145 -260 -362 -325 -561 -58 -175 -70 -257 -71
-450 -1 -166 1 -189 27 -290 33 -127 99 -269 157 -337 56 -65 148 -123 241
-153 67 -21 100 -25 197 -25 271 0 579 108 925 324 53 34 112 70 130 80 88 53
530 352 742 502 209 148 322 229 683 491 178 128 429 266 722 398 58 26 123
56 145 67 22 11 62 28 88 39 l48 19 -5 -77 c-11 -149 -17 -280 -31 -688 -63
-1759 -83 -2243 -106 -2650 -9 -146 -15 -203 -26 -213 -8 -8 -17 -12 -20 -9
-3 4 -14 2 -24 -4 -11 -5 -19 -6 -19 -1 0 12 -80 12 -103 0 -10 -5 -15 -13
-12 -18 3 -5 1 -11 -5 -15 -5 -3 -10 3 -10 14 0 18 -5 20 -39 17 -21 -2 -43
-6 -49 -9 -5 -4 -12 0 -16 8 -3 8 -10 15 -17 15 -6 0 -9 -7 -5 -15 7 -18 -15
-15 -30 4 -8 10 -13 11 -18 3 -11 -18 -34 -14 -40 6 -8 23 -58 24 -54 1 2 -9
-1 -15 -7 -15 -5 1 -9 5 -7 10 1 4 -3 15 -10 23 -11 13 -13 13 -19 -4 -6 -15
-8 -15 -8 -2 -1 25 -27 43 -35 24 -3 -8 -11 -15 -17 -15 -8 0 -8 4 1 15 8 9 8
15 2 15 -15 0 -42 29 -42 46 0 17 36 19 43 2 3 -7 6 -1 6 14 1 25 21 52 21 29
0 -18 32 -12 51 10 16 19 34 26 67 28 7 1 10 6 7 11 -3 6 3 10 14 10 11 0 23
5 26 10 3 5 1 10 -6 10 -7 0 -5 8 6 20 10 11 23 20 29 20 6 0 4 -5 -4 -10 -11
-7 -12 -12 -4 -20 15 -15 49 17 35 34 -5 6 -11 22 -13 36 -2 21 -8 25 -31 22
-40 -4 -83 -51 -59 -65 4 -2 1 -2 -6 -1 -7 2 -17 -6 -22 -19 -8 -20 -9 -21
-10 -2 -1 11 -4 14 -7 8 -2 -7 -15 -13 -28 -13 -13 0 -28 -6 -32 -14 -4 -8
-24 -18 -43 -23 -24 -7 -36 -16 -40 -33 -5 -23 -7 -22 -24 15 -14 29 -16 43
-8 55 7 12 7 21 0 28 -14 14 -6 47 11 47 8 0 15 13 17 29 2 16 10 34 19 38 12
7 13 14 5 29 -7 12 -7 19 -1 19 12 0 101 91 101 103 0 4 4 6 9 3 5 -3 20 3 34
14 14 11 30 20 36 20 6 0 11 4 11 8 0 9 12 11 95 15 76 4 90 1 106 -29 11 -21
10 -30 -9 -65 -12 -23 -19 -45 -16 -51 4 -6 -2 -8 -16 -3 -21 7 -22 5 -16 -21
6 -24 5 -26 -8 -15 -16 13 -36 7 -36 -10 0 -6 -8 -18 -18 -27 -16 -15 -17 -22
-8 -49 12 -34 30 -33 39 2 3 15 5 13 6 -8 1 -31 21 -28 21 3 0 14 5 18 17 13
13 -5 15 -2 10 15 -3 13 1 28 10 37 8 8 11 21 8 27 -4 7 2 4 12 -7 10 -11 24
-21 31 -23 15 -3 35 46 29 70 -3 9 4 25 15 35 12 11 18 26 15 40 -2 12 -1 20
3 18 5 -3 7 13 6 34 0 21 -4 37 -8 34 -5 -2 -8 3 -8 12 0 8 -12 21 -27 28 -16
6 -31 16 -34 20 -4 5 -10 4 -13 -2 -5 -8 -13 -8 -27 -1 -11 6 -24 8 -29 5 -6
-3 -10 1 -10 9 0 9 -7 16 -15 16 -8 0 -15 -5 -15 -11 0 -6 -5 -7 -12 -2 -23
14 -41 12 -54 -5 -12 -16 -13 -16 -19 0 -6 14 -11 15 -38 5 -61 -20 -92 -43
-100 -74 -7 -24 -18 -33 -48 -42 -36 -11 -64 -40 -54 -55 3 -3 2 -4 -2 -1 -12
9 -43 -28 -43 -52 0 -14 -6 -23 -15 -23 -8 0 -14 -3 -13 -7 1 -5 -6 -22 -15
-40 -9 -18 -18 -45 -20 -61 -2 -15 -7 -33 -11 -40 -4 -7 -4 -17 -1 -22 3 -5 2
-10 -3 -10 -5 0 -10 -12 -11 -27 -2 -34 -8 -105 -10 -115 -1 -4 -11 -10 -23
-14 -12 -3 -28 -13 -36 -20 -7 -8 -23 -16 -35 -18 -12 -3 -34 -7 -49 -10 -14
-3 -29 -14 -31 -24 -4 -16 -5 -16 -6 1 -1 19 -21 23 -37 7 -6 -6 -21 -13 -34
-15 -13 -2 -27 -10 -31 -16 -4 -8 -9 -8 -13 -1 -4 7 -37 10 -84 8 -83 -3 -212
12 -212 25 0 5 -13 15 -29 23 -25 13 -31 13 -52 -2 -23 -15 -23 -15 -9 2 13
16 12 20 -3 31 -9 7 -17 17 -17 24 0 14 -5 14 -33 0 -20 -9 -20 -9 -5 4 22 18
13 58 -10 49 -14 -5 -15 -3 -5 9 10 12 10 18 1 27 -7 7 -8 12 -3 12 6 0 3 5
-5 10 -10 6 -11 10 -2 10 7 0 12 13 12 29 0 17 5 33 10 36 6 3 10 16 10 29 0
13 9 31 20 41 12 10 18 25 15 32 -2 8 0 11 5 8 12 -7 52 33 47 48 -4 12 39 57
55 57 14 0 46 34 57 60 7 18 10 20 10 8 1 -22 -2 -22 51 3 59 29 156 27 178
-3 7 -10 19 -18 26 -18 14 0 26 -20 33 -55 2 -11 8 -21 13 -23 6 -2 10 -12 10
-23 0 -23 1 -23 34 -6 14 8 23 17 19 20 -3 4 1 7 10 7 10 0 18 6 18 13 3 21 7
51 12 72 3 11 -6 35 -20 55 -14 19 -23 27 -20 18 4 -10 2 -18 -3 -18 -6 0 -10
9 -10 20 0 23 -38 28 -59 8 -10 -11 -16 -9 -30 9 -12 14 -27 21 -44 19 -14 -2
-40 4 -57 12 -29 14 -32 14 -46 -7 -18 -24 -34 -28 -34 -6 0 8 -4 15 -10 15
-5 0 -10 -4 -10 -9 0 -5 -11 -8 -25 -9 -14 0 -35 -8 -46 -18 -12 -10 -33 -24
-47 -31 -21 -9 -23 -12 -8 -12 15 -1 16 -3 6 -16 -7 -9 -20 -13 -28 -10 -8 3
-24 -4 -36 -15 -11 -11 -40 -37 -63 -56 -24 -20 -43 -44 -43 -53 0 -9 -9 -22
-20 -29 -12 -7 -19 -18 -18 -26 4 -17 -68 -86 -90 -86 -9 0 -23 -9 -30 -20 -7
-12 -17 -18 -21 -15 -13 7 -71 -28 -71 -43 0 -7 -15 -19 -34 -27 -19 -8 -38
-19 -41 -25 -4 -6 -11 -8 -16 -5 -5 4 -9 1 -9 -5 0 -6 -9 -20 -20 -32 -18 -20
-20 -20 -20 -3 0 17 -1 17 -18 2 -10 -10 -22 -14 -25 -10 -4 3 -15 -1 -24 -9
-15 -12 -77 -42 -93 -43 -3 -1 -21 -6 -41 -13 -52 -18 -189 -12 -189 8 -1 8
-14 26 -30 40 -17 13 -30 30 -30 37 0 15 -71 47 -79 36 -11 -15 -31 -13 -31 3
0 13 7 15 32 12 21 -4 37 1 49 13 18 18 18 20 -6 55 -14 20 -26 44 -27 53 0 9
-2 21 -3 26 -2 6 -3 14 -4 19 0 5 -10 1 -21 -9 -11 -10 -17 -21 -15 -26 3 -4
1 -10 -5 -14 -11 -7 -13 9 -4 43 4 12 13 22 20 22 16 0 19 26 5 35 -6 3 -14
-3 -20 -12 -6 -10 -11 -13 -11 -6 0 7 10 21 22 33 20 18 21 24 11 51 -7 17 -9
37 -6 45 3 8 0 14 -7 14 -6 0 -9 -4 -6 -9 3 -5 -6 -11 -19 -14 -14 -2 -28 -1
-30 4 -3 4 -15 6 -27 4 -29 -6 -41 4 -27 21 9 11 8 14 -5 14 -11 0 -19 -12
-23 -32 -6 -31 -6 -31 -15 -7 -6 15 -5 25 1 27 6 2 11 8 11 14 0 6 -7 8 -15 5
-8 -4 -18 -1 -21 5 -5 8 -10 5 -15 -8 -6 -16 -8 -16 -8 -2 -1 16 -4 15 -37 -4
-24 -14 -31 -23 -23 -28 8 -5 5 -10 -10 -15 -11 -3 -25 -3 -31 0 -6 3 -13 0
-16 -8 -3 -8 -23 -22 -45 -32 -21 -10 -39 -22 -39 -26 0 -4 -11 -20 -24 -34
-14 -15 -27 -32 -30 -38 -3 -9 -8 -8 -15 2 -8 12 -16 8 -45 -24 -20 -21 -36
-35 -36 -29 -1 5 -6 0 -13 -11 -7 -11 -17 -20 -23 -20 -14 0 -74 -51 -74 -64
0 -6 -12 -17 -27 -25 -16 -8 -53 -41 -84 -73 -55 -58 -77 -71 -71 -45 2 8 -2
12 -10 10 -7 -3 -14 -10 -14 -16 -1 -7 -2 -20 -3 -29 -1 -17 -2 -17 -12 0 -8
13 -8 22 -1 29 6 6 8 16 6 23 -4 9 6 12 33 11 33 -1 38 2 37 21 0 13 4 23 9
23 5 0 7 6 4 14 -3 8 0 17 8 20 8 3 13 18 13 35 -1 16 7 37 16 47 10 9 15 25
13 35 -4 13 0 19 12 19 25 0 33 11 20 27 -9 10 -8 13 5 13 14 0 21 18 17 44
-1 4 5 19 14 32 8 13 15 33 15 45 0 17 3 19 14 10 11 -9 18 -6 35 15 23 29 29
69 9 59 -7 -4 -4 2 8 12 11 10 25 30 32 46 6 15 16 27 21 27 23 0 20 34 -6 56
-30 26 -43 30 -43 14 0 -6 -4 -9 -9 -8 -5 2 -17 -6 -25 -17 -13 -16 -15 -17
-10 -2 3 9 1 17 -5 17 -6 0 -11 -4 -11 -8 0 -5 -13 -24 -30 -42 -16 -18 -30
-38 -30 -42 0 -5 -13 -23 -30 -41 -19 -20 -28 -38 -24 -49 4 -13 0 -18 -15
-18 -12 0 -21 -7 -21 -15 0 -8 -4 -15 -9 -15 -15 0 -21 -30 -11 -51 7 -13 7
-19 0 -20 -5 -1 -16 -2 -22 -3 -7 -1 -12 -7 -11 -14 2 -6 -6 -16 -16 -21 -20
-11 -30 -31 -38 -75 -4 -24 -2 -28 12 -22 13 5 16 2 11 -10 -3 -8 -6 -17 -6
-18 0 -2 -10 -1 -23 1 -17 3 -26 -2 -34 -20 -7 -14 -18 -25 -25 -24 -7 0 -22
-1 -32 -1 -18 -2 -18 -3 -3 -20 19 -21 23 -42 5 -24 -7 7 -17 12 -24 12 -15 0
-24 -46 -11 -59 6 -6 7 -14 3 -18 -4 -5 -17 3 -28 17 l-20 25 -23 -27 c-13
-15 -25 -25 -28 -22 -3 3 -26 -5 -51 -17 -36 -17 -45 -26 -41 -39 7 -22 -14
-38 -26 -19 -6 11 -12 10 -28 -5 -11 -10 -24 -15 -30 -12 -5 4 -12 2 -16 -4
-4 -6 -10 -8 -14 -5 -5 2 -16 -4 -26 -15 -10 -11 -24 -20 -32 -20 -7 0 -13 -5
-13 -11 0 -5 4 -8 8 -5 4 2 14 1 21 -4 10 -6 8 -10 -8 -15 -16 -5 -27 -1 -37
12 -11 13 -17 15 -20 5 -3 -6 -10 -10 -15 -6 -5 3 -9 0 -9 -7 0 -9 -3 -9 -14
0 -10 8 -16 9 -21 1 -3 -5 -15 -10 -26 -10 -11 0 -19 -7 -19 -16 0 -8 -4 -13
-9 -9 -5 3 -12 1 -16 -5 -3 -5 -11 -10 -16 -10 -6 0 -8 4 -4 9 3 5 -7 9 -23 9
-41 -1 -192 53 -192 69 0 8 -6 16 -14 19 -8 3 -15 13 -15 22 0 9 -2 35 -3 57
-2 30 2 44 17 57 11 9 24 13 30 10 5 -3 27 -8 47 -9 32 -3 38 -1 38 14 0 11 5
24 12 31 9 9 9 12 0 12 -7 0 -12 5 -12 11 0 6 8 9 18 7 10 -2 16 -11 14 -21
-2 -10 1 -17 5 -16 4 1 10 1 13 0 22 -8 90 -7 90 0 0 5 -5 9 -12 9 -6 0 -4 7
5 18 10 10 17 29 18 43 1 21 2 20 11 -8 6 -18 14 -33 17 -33 12 0 6 113 -6
117 -11 4 -18 -15 -14 -39 0 -4 -5 -5 -13 -2 -8 3 -17 0 -21 -6 -5 -8 -11 -8
-21 1 -8 6 -14 7 -14 2 0 -11 -99 -49 -118 -45 -7 2 -15 -4 -19 -13 -4 -12 -8
-13 -13 -5 -4 7 -17 9 -34 4 -22 -5 -27 -12 -26 -33 3 -40 1 -55 -7 -47 -4 4
-6 25 -4 46 1 24 -2 40 -8 40 -6 0 -11 18 -11 40 0 28 4 40 14 40 8 0 17 6 19
13 4 9 6 9 6 0 1 -7 5 -13 10 -13 5 0 8 12 6 28 -2 15 -4 31 -4 35 -1 5 -11 5
-23 2 -17 -6 -20 -4 -15 10 4 9 7 22 8 28 0 7 4 3 9 -8 7 -18 8 -18 15 7 4 16
13 28 21 28 8 0 14 11 15 28 0 24 1 25 9 7 4 -12 16 -27 26 -35 10 -8 15 -10
11 -3 -4 7 0 16 9 21 10 6 15 16 11 26 -4 10 -1 16 8 16 8 0 15 7 15 15 0 8
-7 15 -15 15 -8 0 -15 5 -15 11 0 5 5 7 10 4 6 -3 10 2 11 12 0 14 2 14 9 -4
10 -25 25 -30 36 -11 5 8 2 9 -9 5 -11 -4 -17 -1 -17 8 0 9 6 12 15 9 12 -5
15 2 15 33 0 51 -13 64 -54 52 -51 -14 -76 -31 -76 -52 0 -15 -3 -17 -14 -8
-10 9 -16 8 -26 -4 -7 -8 -9 -15 -4 -15 5 0 1 -7 -10 -15 -10 -7 -15 -18 -11
-24 4 -7 -4 -11 -19 -11 -20 0 -24 -4 -19 -17 5 -11 3 -14 -6 -8 -10 6 -11 2
-6 -15 6 -19 4 -21 -17 -15 -23 6 -23 6 -3 -10 l20 -17 -20 4 c-14 2 -19 -2
-17 -14 4 -25 -16 -58 -34 -58 -13 0 -13 -2 0 -22 9 -12 16 -27 16 -33 0 -5
-5 -3 -10 5 -8 13 -11 11 -16 -8 -4 -13 -14 -22 -25 -22 -19 0 -24 -16 -19
-67 1 -15 -4 -23 -14 -23 -17 0 -22 -15 -7 -24 5 -3 7 -15 4 -27 -4 -15 -8
-17 -14 -8 -4 7 -5 18 -2 24 3 5 -6 -2 -21 -18 -31 -31 -33 -32 -52 -12 -9 8
-22 15 -29 15 -17 0 -31 -40 -17 -49 7 -4 7 -12 3 -20 -7 -11 -10 -9 -16 8 -9
28 -14 27 -63 -15 -38 -32 -41 -37 -28 -55 8 -11 11 -30 8 -41 -4 -17 -2 -20
11 -15 20 8 30 -19 16 -45 -8 -16 -8 -22 2 -29 16 -9 20 -7 23 18 2 10 10 17
18 17 10 -1 13 6 11 20 -2 11 1 27 6 35 8 13 12 13 27 0 15 -12 16 -12 10 9
-3 12 -8 31 -11 41 -3 11 -1 22 5 26 5 3 10 2 10 -2 0 -5 9 -9 19 -9 13 0 22
10 26 31 6 23 9 26 12 11 4 -16 7 -15 24 10 11 16 19 22 17 14 -5 -25 16 -24
29 1 12 23 13 23 13 -14 0 -38 17 -47 33 -17 4 8 5 -4 2 -28 -5 -43 -1 -49 25
-32 19 12 30 -5 30 -47 0 -23 5 -33 16 -33 8 0 12 4 9 10 -3 5 -2 10 4 10 5 0
8 -14 6 -30 -2 -21 1 -30 11 -30 8 0 14 -4 14 -10 0 -5 7 -7 16 -3 8 3 13 12
10 19 -3 7 -1 16 4 19 6 4 10 -3 10 -15 0 -23 12 -37 49 -58 19 -11 26 -11 47
3 21 14 24 14 24 0 0 -22 56 -20 69 2 8 14 9 11 5 -14 -4 -18 -2 -33 3 -33 13
0 39 22 52 45 7 13 11 15 10 5 -3 -27 1 -40 11 -40 6 0 10 16 10 35 0 19 5 35
10 35 6 0 9 -6 8 -12 -2 -7 5 -13 14 -13 24 0 35 -15 18 -25 -13 -9 -13 -10 0
-10 8 0 24 11 34 25 10 13 23 22 28 19 6 -4 14 -1 19 7 11 18 79 20 79 2 0 -7
5 -13 10 -13 6 0 10 7 10 15 0 8 5 15 10 15 6 0 10 5 10 11 0 6 -9 9 -20 6
-13 -3 -24 3 -36 21 l-16 25 31 -6 c27 -6 31 -4 31 14 0 11 5 17 10 14 6 -4 8
-15 5 -25 -7 -22 14 -38 25 -19 6 9 12 10 22 2 15 -13 48 5 48 26 0 6 7 11 17
11 9 0 13 3 10 7 -4 3 -2 12 4 19 8 10 15 10 29 1 11 -6 22 -8 26 -4 10 10
-15 37 -30 31 -7 -3 -13 7 -14 25 -2 28 -1 29 23 18 14 -7 28 -20 31 -30 8
-26 29 -15 27 14 -1 15 0 17 3 7 7 -23 24 -23 24 -1 0 13 3 14 12 5 8 -8 8
-15 -1 -26 -7 -8 -11 -35 -9 -63 2 -31 -2 -52 -10 -59 -19 -14 41 -79 64 -70
9 4 22 2 28 -3 7 -6 17 -6 26 0 13 8 12 12 -4 24 -19 15 -19 15 2 15 11 0 25
7 30 16 5 9 20 17 34 17 15 1 24 5 21 9 -2 5 0 8 6 8 5 0 8 11 7 25 -2 17 3
26 15 30 11 4 22 17 25 31 3 13 11 21 17 17 6 -3 7 -1 3 5 -9 15 38 60 61 58
12 -1 17 5 15 18 -2 10 1 15 7 12 14 -9 31 26 25 55 -4 23 -4 23 5 3 14 -32
29 -37 23 -9 -6 31 6 33 18 3 7 -18 9 -19 9 -5 1 9 5 17 10 17 12 0 31 56 23
66 -4 4 5 4 20 0 21 -5 26 -3 22 8 -3 8 -1 17 5 21 6 3 11 -1 11 -9 0 -9 4
-16 9 -16 13 0 49 72 44 88 -3 6 0 12 6 12 6 0 10 -3 10 -7 -3 -20 2 -23 16
-9 8 8 15 19 15 25 0 16 11 13 26 -7 12 -16 13 -15 14 7 0 23 1 24 14 6 13
-18 14 -18 31 2 10 12 24 19 31 16 7 -3 14 5 16 19 2 13 9 22 17 20 9 -2 12 4
7 21 -4 17 -1 24 9 24 8 0 16 -6 19 -14 7 -16 29 -17 24 -1 -5 13 14 38 27 38
4 0 5 -8 3 -18 -4 -14 1 -17 26 -16 35 1 75 -30 51 -40 -18 -7 -31 -76 -17
-85 6 -4 12 -35 13 -70 1 -42 7 -65 15 -68 8 -3 11 -9 8 -14 -3 -5 -10 -7 -15
-4 -5 4 -9 1 -9 -4 0 -6 5 -11 10 -11 6 0 10 -14 10 -31 0 -17 4 -28 10 -24 8
5 15 -21 12 -46 -1 -4 8 -4 20 -1 14 3 19 1 14 -6 -4 -7 -2 -12 3 -12 6 0 11
-7 11 -14 0 -12 6 -13 30 -5 38 14 39 30 2 23 -24 -5 -28 -2 -29 18 -2 18 0
20 7 8 8 -13 11 -13 19 -1 7 11 10 11 15 0 5 -11 7 -11 12 -1 3 6 10 9 16 6 5
-3 16 2 24 12 9 11 13 13 9 7 -3 -7 -2 -13 3 -13 6 0 12 -6 15 -13 4 -10 -3
-12 -26 -9 -28 4 -30 3 -24 -19 4 -13 7 -33 7 -44 0 -12 3 -16 8 -9 4 6 19 14
34 17 23 6 25 4 20 -15 -3 -14 -2 -19 6 -14 7 4 12 16 12 26 0 27 17 33 23 9
4 -14 11 -20 21 -16 9 4 19 -1 24 -9 9 -17 62 -10 62 8 0 5 5 6 10 3 24 -15
60 -15 60 -1 0 8 -6 17 -12 20 -7 3 8 4 35 2 26 -2 47 -1 47 3 0 3 17 7 38 7
81 2 84 3 77 23 -4 14 1 20 21 25 14 4 34 4 45 1 13 -4 19 -2 19 9 0 9 7 16
15 16 9 0 18 7 21 15 4 8 10 15 16 15 5 0 7 -4 3 -9 -3 -5 -1 -12 4 -15 10 -7
21 16 21 45 0 26 18 24 23 -3 l4 -23 8 23 c5 15 13 21 23 17 20 -7 32 12 32
53 0 17 4 32 9 32 5 0 8 -22 6 -50 -2 -31 2 -54 10 -60 8 -6 12 -24 10 -41 -2
-16 0 -29 5 -29 6 0 10 6 11 13 0 6 6 -1 13 -17 8 -18 16 -24 20 -17 14 22 25
11 19 -19 -5 -27 -3 -29 13 -23 17 6 17 5 5 -10 -23 -29 -7 -28 25 1 17 15 29
33 26 40 -2 7 1 12 7 12 6 0 10 -11 9 -25 -1 -13 -4 -22 -7 -20 -6 7 -41 -26
-41 -38 0 -5 6 -4 14 2 11 9 15 9 19 -1 4 -8 8 -9 14 -3 4 6 18 11 31 13 20 3
22 0 16 -22 -7 -29 10 -36 20 -9 6 14 8 14 21 -3 13 -19 14 -19 29 1 8 11 16
15 16 8 0 -6 16 -20 35 -32 l35 -20 0 37 c0 36 0 37 13 12 7 -14 21 -24 30
-24 9 1 15 -2 12 -6 -8 -13 21 -20 33 -8 7 7 20 7 41 0 27 -9 30 -8 33 11 3
19 4 20 20 4 13 -14 18 -14 27 -3 7 9 23 12 41 9 17 -2 30 0 30 5 0 5 7 9 15
9 8 0 15 -4 15 -9 0 -5 9 -4 20 2 11 6 20 8 20 4 0 -3 7 0 16 7 9 7 28 13 42
13 30 0 42 9 62 46 12 22 14 22 25 7 11 -15 13 -16 19 -2 3 8 10 15 16 15 6 0
8 -5 5 -10 -3 -6 -1 -10 5 -10 6 0 9 -4 5 -9 -3 -5 -1 -12 4 -15 5 -4 12 -2
16 3 8 14 35 2 35 -16 0 -8 4 -12 9 -8 5 3 11 -5 13 -17 4 -22 5 -22 16 6 16
36 27 26 23 -21 -3 -34 -2 -35 23 -29 19 5 28 2 32 -9 8 -19 24 -20 24 0 0 22
21 18 27 -4 5 -21 27 -18 51 6 14 14 45 6 36 -9 -3 -5 -13 -7 -21 -4 -9 4 -13
1 -11 -6 8 -22 27 -14 49 17 11 17 19 23 18 15 -3 -26 2 -56 8 -42 7 18 19 15
42 -10 18 -19 24 -20 45 -9 16 9 23 20 21 32 -5 25 12 24 20 -1 9 -28 26 -14
21 16 -4 21 -3 24 10 14 7 -7 14 -18 14 -26 0 -7 5 -16 12 -20 8 -5 9 -2 5 9
-9 24 18 22 44 -4 16 -16 23 -18 35 -8 8 6 14 18 14 25 0 8 5 14 10 14 6 0 10
-5 10 -11 0 -5 5 -7 10 -4 6 3 10 1 10 -4 0 -6 5 -11 11 -11 6 0 9 6 6 14 -3
8 2 20 11 28 10 8 13 8 9 1 -4 -6 -3 -14 3 -18 6 -4 8 -46 5 -108 -20 -425
-25 -545 -30 -717 -3 -107 -8 -243 -11 -301 l-5 -107 63 23 63 23 21 193 c35
320 54 477 74 624 10 77 24 187 31 245 9 72 18 111 30 124 15 15 16 23 6 44
-9 20 -9 26 1 30 15 5 16 49 1 54 -7 2 -4 73 10 228 28 298 57 857 76 1435 9
259 24 688 35 955 10 267 22 616 26 776 l7 290 56 -9 c113 -18 232 -22 491
-15 627 16 1007 91 1360 267 150 75 208 113 420 276 162 126 291 215 308 215
17 0 15 35 -3 50 -29 24 -123 -16 -405 -173 -464 -259 -716 -330 -1522 -430
-16 -2 -26 -2 -24 1 3 2 71 31 153 64 81 32 247 108 368 168 364 179 606 344
838 569 152 148 337 383 337 428 0 33 -40 4 -153 -110 -340 -344 -736 -584
-1397 -849 -96 -38 -197 -78 -225 -88 -27 -10 -86 -33 -130 -50 -44 -17 -102
-40 -130 -50 -27 -10 -59 -21 -70 -26 -11 -4 25 28 80 71 201 157 440 382 476
448 19 34 -18 17 -97 -44 -257 -199 -648 -429 -1046 -615 -559 -261 -694 -337
-930 -521 -80 -63 -139 -105 -357 -257 -653 -455 -1279 -858 -1550 -999 l-115
-59 -18 41 c-27 63 -65 115 -208 277 -72 82 -142 169 -156 192 -60 102 -20
175 191 352 168 141 298 226 425 278 49 20 56 21 66 7 14 -19 30 -19 38 1 41
108 -126 98 -369 -22 -308 -151 -535 -378 -535 -534 0 -52 28 -143 62 -199 30
-50 120 -161 199 -246 36 -38 76 -86 89 -105 13 -19 36 -49 52 -66 l29 -31
-78 -22 c-227 -61 -361 -53 -486 30 -111 73 -189 235 -221 460 -27 185 21 420
132 644 73 148 146 245 289 385 208 204 261 249 340 286 67 32 123 83 123 112
0 13 120 113 250 209 52 39 239 166 415 283 351 234 452 306 595 421 52 42
105 80 117 83 12 4 37 26 54 49 18 23 76 87 130 142 199 206 257 335 339 760
36 190 47 224 112 374 61 139 69 180 39 210 -11 11 -27 21 -35 21 -28 0 -82
-48 -122 -106 -84 -125 -130 -266 -189 -574 -61 -319 -137 -479 -296 -623
l-59 -54 -208 -6 c-177 -5 -447 -30 -573 -53 l-36 -6 -6 53 c-4 30 -7 104 -8
164 0 61 -4 131 -8 157 l-8 46 65 7 c218 23 473 132 581 249 30 32 41 33 41 2
0 -39 49 -197 78 -250 15 -27 47 -71 72 -97 39 -42 52 -49 83 -49 87 0 103 85
38 211 -49 97 -74 174 -105 329 -83 412 -76 871 19 1398 8 46 12 95 9 108 -7
28 -29 32 -43 7z"/>
<path d="M7695 10122 c-27 -6 -120 -70 -184 -128 -69 -62 -160 -176 -205 -257
-42 -75 -126 -287 -126 -317 0 -31 28 -80 46 -80 39 0 104 111 104 179 0 25
45 161 72 216 59 123 163 244 281 327 31 23 57 44 57 48 0 11 -22 17 -45 12z"/>
<path d="M3133 8029 c-14 -19 -23 -254 -11 -298 25 -91 94 -94 112 -5 4 19 -1
62 -12 110 -11 44 -23 96 -26 116 -9 49 -47 96 -63 77z"/>
<path d="M6660 7728 c0 -27 8 -41 85 -168 32 -52 80 -137 107 -190 27 -52 60
-105 74 -117 70 -63 122 12 74 107 -43 84 -299 390 -326 390 -8 0 -14 -10 -14
-22z"/>
<path d="M6332 7563 c-31 -3 -46 -11 -58 -28 -21 -32 -4 -68 83 -175 91 -112
140 -184 202 -301 70 -132 110 -169 180 -169 63 0 87 79 52 170 -12 30 -43 85
-71 121 -55 73 -201 217 -286 280 -55 42 -61 59 -20 59 12 0 31 6 41 14 18 13
18 14 -3 25 -20 11 -35 11 -120 4z"/>
<path d="M10595 7291 c-16 -10 -41 -31 -55 -46 -42 -45 -137 -115 -193 -141
-163 -74 -322 -82 -661 -33 -126 18 -249 22 -294 10 -62 -17 -105 -59 -104
-101 1 -42 49 -94 100 -107 51 -13 578 -8 682 7 99 14 199 46 275 90 60 34
251 216 284 270 39 64 24 87 -34 51z"/>
<path d="M5635 6830 c-4 -6 29 -49 73 -95 145 -153 212 -277 231 -428 10 -87
22 -112 59 -131 23 -12 32 -12 59 -1 70 30 67 136 -8 293 -37 77 -56 101 -163
207 -137 137 -228 193 -251 155z"/>
<path d="M1762 5775 c-11 -12 -10 -15 3 -15 20 0 19 -19 -1 -27 -11 -4 -23 2
-34 17 -15 19 -18 20 -23 6 -4 -9 -10 -15 -14 -14 -17 3 -83 -15 -83 -23 0 -5
-10 -4 -21 3 -17 10 -23 10 -26 1 -3 -7 -16 -13 -29 -13 -13 0 -24 -5 -24 -11
0 -6 -7 -9 -14 -6 -10 4 -13 1 -9 -9 3 -9 -1 -14 -14 -14 -10 0 -34 -11 -53
-23 -19 -13 -48 -27 -64 -31 -15 -4 -30 -15 -33 -25 -3 -12 -11 -17 -22 -14
-11 3 -26 -7 -41 -27 -17 -22 -26 -27 -32 -18 -6 10 -8 8 -8 -4 0 -11 -5 -15
-15 -12 -9 4 -15 0 -15 -10 0 -9 -6 -16 -13 -16 -23 0 -77 -73 -77 -105 0 -8
-4 -15 -9 -15 -5 0 -13 -10 -17 -22 -4 -13 -15 -29 -25 -36 -12 -8 -19 -25
-19 -45 0 -24 -3 -28 -10 -17 -7 12 -12 12 -22 2 -18 -18 21 -45 42 -29 13 11
13 10 0 -8 -8 -11 -16 -22 -17 -24 -2 -3 -9 4 -17 14 -19 27 -48 13 -44 -22 2
-17 -2 -28 -9 -28 -7 0 -12 -4 -10 -10 1 -5 10 -9 20 -8 23 4 22 -23 -3 -49
l-20 -22 0 23 c0 12 -4 19 -10 16 -5 -3 -10 -15 -10 -26 0 -10 -6 -19 -14 -19
-15 0 -31 -18 -23 -26 2 -2 17 0 32 6 23 9 30 7 41 -7 7 -10 13 -25 13 -33 0
-8 -7 -3 -15 13 -17 32 -29 36 -21 6 5 -18 2 -20 -24 -14 -25 6 -29 4 -29 -15
0 -12 5 -30 10 -40 8 -15 6 -24 -7 -39 -47 -52 -52 -61 -28 -61 17 0 20 -16 5
-25 -17 -10 -11 -25 13 -35 17 -7 18 -9 5 -9 -10 -1 -18 -5 -18 -10 0 -5 -2
-16 -5 -23 -4 -9 2 -14 15 -14 11 0 20 4 20 8 0 4 -4 8 -10 8 -5 0 -10 5 -10
11 0 5 4 8 9 5 5 -3 21 4 36 16 l28 21 -12 -21 c-6 -11 -12 -32 -13 -46 -2
-23 -10 -28 -34 -25 -8 1 -24 -22 -24 -35 0 -4 12 0 27 9 24 16 26 16 20 0 -4
-9 -7 -23 -7 -31 0 -9 -4 -12 -10 -9 -5 3 -10 1 -10 -4 0 -13 29 -14 48 -3 7
5 10 15 7 24 -6 15 21 46 31 35 3 -3 -1 -18 -9 -34 -8 -15 -12 -34 -10 -40 3
-8 -3 -13 -14 -13 -22 0 -50 -17 -42 -25 8 -7 57 11 73 28 7 7 11 18 8 25 -2
7 2 10 12 6 19 -7 22 -34 4 -34 -10 0 -9 -3 1 -9 7 -5 10 -14 6 -20 -5 -9 -10
-9 -21 0 -11 9 -18 9 -26 1 -6 -6 -16 -8 -23 -6 -19 8 -27 -12 -11 -25 11 -9
17 -8 29 4 23 23 37 18 38 -12 1 -28 1 -33 -9 -67 -3 -12 -1 -17 5 -13 6 4 14
0 17 -9 3 -8 11 -12 17 -9 6 4 8 13 5 21 -3 9 1 14 13 14 26 0 16 -36 -12 -44
-20 -6 -21 -7 -5 -19 9 -7 20 -25 23 -40 13 -48 45 -23 45 34 0 21 5 41 10 44
5 3 10 -3 10 -14 0 -16 5 -18 28 -15 37 6 64 -21 32 -31 -17 -6 -18 -8 -6 -21
19 -19 27 -18 19 4 -5 14 -3 13 10 -3 18 -22 23 -65 7 -65 -5 0 -10 -6 -10
-14 0 -18 30 -30 44 -16 7 7 5 10 -7 10 -15 0 -15 3 -5 20 11 17 14 17 21 4 5
-9 7 -24 4 -35 -3 -10 -1 -19 5 -19 19 0 36 -26 27 -41 -7 -11 -9 -11 -9 4 0
37 -18 14 -18 -24 -1 -31 2 -39 11 -30 15 15 30 14 24 -3 -3 -7 -2 -17 3 -22
5 -5 2 -26 -5 -47 -15 -43 -13 -73 4 -69 17 3 13 -15 -5 -22 -24 -9 -7 -24 23
-20 24 4 25 3 8 -5 -11 -6 -14 -10 -6 -10 11 -1 11 -4 1 -16 -10 -12 -10 -15
4 -15 9 0 16 -8 17 -17 0 -10 8 -36 18 -58 17 -39 17 -39 -7 -60 -20 -17 -25
-31 -25 -71 1 -63 -32 -134 -91 -196 -24 -27 -47 -48 -51 -48 -3 0 -29 -16
-58 -35 -29 -20 -69 -38 -89 -41 -20 -4 -39 -12 -42 -20 -3 -9 -19 -11 -52 -9
-25 2 -49 6 -52 9 -10 10 -32 -16 -32 -38 -1 -19 -2 -19 -18 7 -16 26 -42 37
-42 17 0 -5 -4 -10 -10 -10 -5 0 -10 8 -10 18 0 20 -30 26 -42 8 -5 -7 -8 -4
-8 7 0 9 -4 17 -10 17 -5 0 -10 -7 -10 -15 0 -8 -2 -15 -5 -15 -11 0 -50 25
-58 37 -4 7 -14 10 -22 7 -8 -4 -15 -1 -15 7 0 13 -58 69 -72 69 -5 0 -6 -9
-3 -20 5 -14 2 -20 -10 -20 -13 0 -14 -4 -5 -20 6 -10 8 -46 6 -80 -2 -36 0
-60 6 -60 6 0 8 7 4 15 -3 9 3 19 15 26 26 13 36 5 19 -16 -7 -8 -9 -15 -5
-15 4 0 2 -7 -5 -15 -7 -8 -8 -15 -2 -15 14 0 35 28 28 39 -5 7 14 21 30 21 2
0 4 -17 4 -37 0 -44 13 -69 29 -59 6 4 8 12 5 18 -4 6 -2 8 4 4 18 -11 24 13
8 30 -13 12 -13 19 -3 34 12 21 27 26 27 11 0 -5 -5 -11 -11 -13 -7 -2 -3 -19
11 -46 16 -31 26 -40 33 -33 15 15 27 14 27 -4 0 -21 26 -19 35 2 5 15 12 11
45 -25 26 -29 40 -39 44 -30 4 9 8 10 12 1 9 -19 58 1 65 28 5 18 7 19 8 5 1
-14 6 -17 24 -12 12 3 25 6 30 6 4 0 7 7 7 15 0 8 9 19 19 25 11 5 21 20 23
32 4 27 21 33 41 13 21 -20 26 -19 49 10 11 14 23 23 28 20 5 -3 11 -1 15 5 4
6 11 8 16 5 5 -4 9 2 9 13 0 10 9 28 20 39 13 14 15 23 8 25 -7 3 2 11 20 19
18 7 32 17 32 21 0 5 5 8 11 8 5 0 8 -4 4 -9 -3 -5 0 -13 6 -17 8 -4 9 -3 5 4
-4 7 -3 12 3 12 6 0 14 12 17 26 4 14 12 23 19 21 11 -5 13 0 17 43 1 11 6 20
11 20 5 0 5 6 -1 13 -8 10 -6 16 9 25 11 7 17 17 14 22 -3 5 -1 11 5 15 6 4 8
11 5 16 -4 5 3 23 15 39 12 16 18 34 15 40 -3 5 -2 10 4 10 6 0 13 11 17 25 3
14 10 25 15 25 5 0 9 4 9 10 0 5 -6 7 -14 4 -8 -3 -17 -1 -21 5 -3 6 0 14 8
17 15 5 19 34 4 31 -5 -1 -13 9 -18 22 -7 18 -6 22 5 18 8 -3 20 0 26 8 9 11
7 14 -14 12 -14 -1 -24 3 -23 8 1 6 5 9 9 8 4 -2 5 10 3 25 -3 15 -7 36 -8 47
-1 11 -6 26 -10 33 -5 6 -6 16 -3 21 4 5 -7 12 -24 16 -29 6 -40 28 -20 40 7
4 7 12 0 24 -5 10 -6 22 -2 26 4 5 -1 5 -10 2 -13 -5 -16 0 -15 21 1 18 -3 27
-13 28 -8 1 -19 2 -24 3 -5 0 -3 8 4 16 10 11 9 18 -4 31 -9 8 -14 20 -11 25
4 5 2 9 -4 9 -5 0 -13 9 -16 21 -5 14 -13 19 -26 16 -19 -5 -24 6 -21 43 2 24
-19 70 -33 70 -7 0 -16 12 -20 27 -3 15 -14 32 -23 39 -9 7 -17 16 -17 21 0 5
-10 19 -22 33 -13 13 -23 29 -23 36 0 7 -5 25 -12 41 -6 15 -13 36 -15 46 -2
10 -9 28 -15 40 -7 12 -11 26 -10 30 5 19 -19 46 -36 40 -16 -6 -16 -5 0 13
12 13 18 43 21 100 5 87 10 104 33 104 8 0 14 5 14 10 0 6 -6 10 -14 10 -7 0
-16 14 -20 31 -9 47 -8 49 18 49 27 0 42 15 26 25 -18 11 1 26 23 19 21 -6 21
-6 -2 20 -14 14 -21 29 -16 33 4 5 10 2 12 -4 6 -18 30 -16 37 2 3 8 1 15 -5
15 -14 0 22 35 44 43 9 4 17 12 17 19 0 7 10 18 23 23 12 6 21 16 19 23 -1 7
2 12 6 12 5 0 17 18 28 40 10 22 27 42 36 46 10 3 25 15 35 27 45 55 200 142
287 162 45 10 62 8 151 -15 55 -14 105 -29 112 -33 14 -9 21 12 22 69 1 41
-17 69 -49 76 -8 2 -18 8 -22 13 -5 6 -11 5 -17 -4 -11 -16 -34 -4 -27 14 2 7
-2 16 -10 19 -19 7 -16 8 -32 -9z"/>
<path d="M11985 5397 c-54 -83 -66 -767 -18 -1009 4 -22 3 -29 -5 -24 -7 4
-12 3 -12 -2 0 -14 -35 -21 -53 -11 -10 6 -18 5 -23 -2 -4 -8 -3 -9 4 -5 7 4
12 2 12 -3 0 -15 -27 -14 -33 2 -4 9 -8 8 -17 -3 -9 -11 -13 -12 -17 -2 -2 6
-9 10 -14 7 -5 -4 -6 2 -2 11 5 14 3 16 -11 11 -10 -4 -22 -7 -28 -7 -6 0 -7
-8 -4 -17 5 -16 4 -16 -8 1 -16 20 -53 15 -40 -5 4 -7 -7 -1 -24 11 -25 19
-34 21 -46 11 -8 -7 -20 -11 -28 -10 -31 4 -47 -2 -42 -14 3 -8 -2 -19 -10
-26 -12 -10 -17 -9 -25 8 -12 21 -38 19 -53 -3 -5 -7 -8 -5 -8 4 0 8 -4 21 -9
28 -15 24 -51 -7 -51 -43 0 -16 -5 -37 -10 -45 -7 -10 -10 -11 -10 -2 0 9 -4
10 -19 1 -10 -7 -18 -17 -18 -23 0 -6 -1 -22 -3 -36 -2 -21 -4 -20 -9 10 -5
27 -2 42 16 66 27 37 31 79 7 70 -9 -3 -18 -6 -20 -6 -3 0 -2 -4 1 -10 3 -5 2
-10 -3 -10 -4 0 -18 -9 -30 -20 -22 -21 -22 -21 -22 -1 0 17 -4 19 -22 12 -16
-6 -26 -4 -33 6 -9 12 -14 11 -31 -4 -12 -10 -24 -31 -29 -48 -5 -19 -10 -24
-12 -14 -5 22 -45 39 -74 32 -19 -4 -21 -3 -9 6 8 6 10 11 4 11 -6 0 -22 -9
-35 -20 -13 -11 -29 -23 -34 -28 -14 -12 -35 -3 -35 14 0 20 -20 17 -21 -3 0
-15 -2 -15 -9 2 -8 18 -9 19 -9 1 -1 -18 -2 -18 -48 1 -7 3 -16 -2 -19 -11 -8
-21 -24 -20 -39 1 -11 14 -13 12 -23 -16 -12 -34 -37 -34 -27 0 4 10 2 19 -3
19 -13 0 -24 -29 -15 -43 3 -7 -3 -4 -15 6 -23 21 -42 15 -42 -11 0 -15 -2
-15 -10 -2 -8 13 -11 13 -22 1 -10 -11 -10 -14 0 -18 17 -6 15 -23 -3 -23 -8
0 -15 7 -15 16 0 8 -4 13 -9 9 -5 -3 -12 -1 -16 5 -4 6 -11 8 -16 5 -5 -4 -9
-1 -9 5 0 8 -6 8 -20 0 -11 -6 -24 -9 -29 -6 -5 3 -14 -1 -20 -8 -10 -11 -8
-15 6 -19 17 -4 17 -5 1 -6 -10 0 -18 -5 -18 -11 0 -18 -18 -11 -25 10 -8 25
-22 26 -28 3 -4 -17 -5 -17 -6 0 0 9 -3 17 -4 17 -11 0 -73 -35 -79 -44 -5 -7
-8 -5 -8 5 0 10 -10 15 -35 15 -33 0 -34 -1 -17 -20 9 -11 11 -16 4 -12 -9 5
-15 1 -19 -13 -4 -17 -8 -19 -19 -10 -7 6 -18 8 -25 4 -8 -5 -9 -1 -4 14 10
33 -7 24 -40 -20 -21 -28 -31 -36 -33 -25 -4 18 -32 22 -32 5 0 -5 -4 -7 -10
-4 -5 3 -10 0 -11 -7 0 -7 -5 -1 -11 14 -8 24 -13 26 -29 17 -11 -5 -17 -14
-14 -19 3 -5 1 -11 -4 -14 -5 -3 -11 3 -14 14 -3 11 -10 20 -17 20 -11 0 -9
-13 8 -60 3 -8 -6 -1 -21 15 -21 23 -26 26 -27 13 0 -21 -4 -22 -31 -7 -12 6
-27 8 -35 5 -8 -3 -16 -4 -18 -3 -1 1 -10 -4 -19 -12 -10 -7 -17 -10 -17 -5 0
5 -5 2 -10 -6 -6 -9 -21 -14 -39 -12 -23 3 -31 -1 -36 -18 -6 -20 -8 -20 -20
-4 -11 16 -15 16 -30 4 -12 -10 -18 -11 -24 -2 -13 21 -46 6 -51 -24 -5 -30
-40 -48 -40 -20 0 8 -5 18 -12 22 -6 4 -8 3 -5 -3 4 -6 -5 -11 -21 -11 -15 -1
-47 -3 -72 -5 -43 -3 -45 -5 -45 -35 0 -18 -4 -30 -10 -28 -5 1 -9 10 -7 20 2
9 -4 17 -15 17 -61 5 -73 4 -73 -2 0 -4 -12 -6 -26 -3 -18 3 -31 -1 -39 -13
-11 -14 -16 -15 -26 -6 -8 8 -19 9 -38 2 -14 -6 -26 -9 -26 -8 0 1 -10 -1 -22
-5 -13 -4 -23 -11 -23 -16 0 -5 -6 -7 -14 -4 -9 3 -17 -3 -21 -15 -3 -12 -11
-21 -16 -21 -6 0 -7 9 -4 20 4 12 2 20 -4 20 -6 0 -19 -9 -28 -20 -21 -24 -33
-26 -33 -4 0 11 -6 14 -22 8 -13 -4 -26 -12 -30 -18 -6 -8 -8 -7 -8 2 0 29
-21 8 -34 -35 -12 -38 -23 -38 -17 0 2 12 -37 8 -42 -5 -3 -10 -9 -8 -24 5
-24 21 -42 22 -49 2 -5 -12 -10 -12 -27 -4 -16 9 -23 8 -31 -3 -8 -11 -26 -15
-58 -13 -46 1 -67 -13 -52 -36 7 -12 4 -12 -46 6 -37 13 -46 13 -59 1 -9 -7
-21 -12 -27 -9 -7 2 -11 -4 -10 -13 0 -9 -5 -19 -13 -22 -10 -3 -12 0 -8 11 5
13 -1 15 -31 13 -32 -3 -38 -8 -54 -46 -18 -41 -18 -42 2 -47 12 -3 20 -14 20
-27 1 -21 1 -21 15 -2 11 14 12 22 4 27 -8 5 -8 9 1 14 13 8 32 -14 24 -27
-11 -18 24 -6 42 14 10 12 13 18 5 13 -9 -5 -12 -3 -9 5 7 22 28 23 28 1 0
-31 18 -35 22 -4 4 34 38 46 38 14 0 -27 17 -27 25 -1 5 16 10 18 33 9 15 -6
30 -15 34 -22 11 -18 21 0 22 38 1 44 12 45 20 1 6 -29 10 -33 34 -32 15 1 37
7 49 14 29 16 33 15 26 -5 -5 -14 -1 -13 16 5 26 26 29 27 52 6 17 -15 19 -14
25 12 6 25 8 26 15 9 7 -19 8 -19 8 2 1 17 6 21 26 18 14 -1 28 -5 31 -8 3 -3
17 -2 30 3 17 7 24 6 24 -3 1 -6 9 -2 19 11 22 25 41 29 41 7 0 -8 9 -15 20
-15 11 0 20 5 20 11 0 7 9 9 21 6 14 -4 19 -2 16 7 -3 7 1 13 9 13 8 0 14 -4
14 -9 0 -10 34 -11 44 0 4 4 11 7 14 8 4 0 14 3 22 7 8 3 24 7 35 9 13 2 24
16 31 38 l11 35 8 -43 c4 -26 12 -41 18 -39 17 5 21 48 7 57 -23 14 7 19 33 5
24 -12 30 -11 29 5 0 3 8 6 19 6 24 0 24 -4 -3 -27 -11 -11 -18 -22 -14 -26 4
-4 11 -1 16 7 5 8 12 11 16 7 5 -4 14 3 21 15 7 13 12 18 13 12 0 -6 8 -11 18
-10 30 3 92 27 92 37 0 17 67 10 74 -8 5 -11 10 -13 14 -7 6 9 56 21 109 26 8
1 8 7 -3 22 -16 24 -18 36 -5 36 5 0 13 -9 16 -20 4 -14 15 -20 35 -20 31 0
48 15 28 24 -7 4 -3 4 9 2 14 -2 20 1 17 8 -7 18 13 66 27 66 7 0 8 -7 4 -17
-5 -10 -10 -34 -13 -53 -3 -29 -2 -33 9 -22 7 6 26 12 41 12 15 0 28 5 28 10
0 6 -6 10 -14 10 -20 0 -28 27 -12 42 7 7 11 20 8 28 -3 11 -2 12 8 4 9 -9 9
-17 0 -34 -11 -20 -10 -22 4 -17 12 5 16 0 17 -16 l0 -22 9 23 c11 25 38 29
46 7 7 -16 30 -20 36 -6 2 5 24 12 50 14 57 7 68 12 68 38 0 20 16 26 22 8 6
-17 78 -20 78 -3 0 16 16 19 22 5 2 -6 22 -5 51 1 37 9 47 16 49 32 0 12 2 26
3 31 2 6 3 21 4 34 1 19 3 21 16 11 10 -8 12 -17 5 -29 -10 -20 3 -47 18 -37
6 4 20 1 31 -6 18 -11 23 -10 35 7 12 16 17 18 27 8 18 -18 29 -16 29 5 0 13
2 14 9 3 7 -11 11 -10 20 5 10 18 10 18 11 1 0 -14 5 -17 21 -12 12 4 28 8 36
9 8 1 18 8 23 15 6 11 8 11 12 0 4 -12 8 -11 23 1 11 9 16 10 11 3 -4 -8 -1
-13 9 -13 12 0 15 6 10 23 -5 19 -4 20 5 5 17 -28 30 -21 24 12 -4 20 -2 30 5
30 7 0 10 -4 7 -9 -24 -38 60 -55 95 -20 10 10 19 15 19 10 0 -13 33 -19 58
-10 15 6 20 13 15 26 -6 17 -5 16 15 -1 22 -19 22 -19 22 0 1 18 1 18 11 2 15
-27 48 -22 55 7 6 26 39 55 60 55 7 0 15 -12 18 -26 5 -19 12 -25 26 -21 10 3
20 1 22 -4 2 -6 19 -6 43 -1 31 7 36 11 23 17 -10 4 -18 11 -18 16 0 6 8 6 19
0 10 -6 21 -7 25 -4 3 3 6 1 6 -5 0 -8 19 -12 51 -12 l51 0 -17 26 c-18 29
-13 43 9 25 11 -9 15 -9 20 1 3 7 4 1 1 -13 -3 -19 0 -26 13 -26 9 0 22 7 29
16 11 15 12 15 13 0 0 -13 9 -17 43 -15 34 1 42 4 41 19 -2 17 -1 17 16 2 17
-16 19 -15 22 6 2 12 9 24 16 27 11 3 12 0 3 -17 -12 -22 -7 -41 10 -41 10 0
24 10 60 43 22 20 36 23 21 4 -15 -18 10 -51 26 -35 9 9 12 9 12 0 0 -7 9 -12
20 -12 11 0 20 5 20 11 0 6 -7 9 -15 5 -9 -3 -15 0 -15 10 0 10 -6 14 -15 10
-8 -3 -15 -1 -15 3 0 8 23 21 36 21 2 0 4 -8 4 -17 0 -15 2 -16 10 -3 9 13 11
13 20 0 5 -8 10 -21 10 -27 0 -7 4 -13 9 -13 5 0 8 20 6 45 -3 42 6 58 20 35
4 -6 11 -8 16 -5 5 4 9 1 9 -4 0 -6 -4 -11 -10 -11 -5 0 -10 -15 -10 -32 0
-22 3 -29 9 -20 24 38 26 28 86 -428 40 -305 82 -644 110 -900 72 -660 143
-1252 196 -1635 16 -121 45 -339 64 -485 37 -282 44 -305 98 -324 21 -8 31 -6
47 9 36 32 41 77 21 188 -10 56 -22 145 -25 197 -9 125 -39 385 -82 705 -41
306 -43 327 -100 1220 -34 541 -106 1160 -163 1408 -7 28 -6 37 4 37 8 0 17
-4 20 -10 10 -16 25 -11 25 8 0 19 40 26 40 7 0 -5 7 -2 14 8 8 10 17 14 20 9
3 -5 -1 -15 -9 -22 -8 -7 -12 -17 -9 -22 3 -5 17 1 30 13 l24 22 0 -21 c0 -28
17 -29 25 -2 3 11 10 20 15 20 5 0 7 7 4 15 -4 8 -1 15 4 15 6 0 17 7 26 15 8
8 17 11 21 6 3 -5 -3 -12 -14 -16 -10 -3 -21 -15 -24 -25 -6 -22 8 -37 18 -20
7 11 25 4 25 -10 0 -5 -7 -7 -15 -4 -18 7 -20 -12 -3 -23 23 -14 53 -8 63 12
9 16 7 21 -6 25 -16 4 -16 7 -3 24 14 20 14 20 28 1 8 -11 12 -23 10 -27 -6
-9 17 -58 27 -58 4 0 10 6 12 13 3 7 6 5 6 -5 1 -25 22 -22 29 4 l5 22 9 -23
c4 -12 12 -19 18 -16 5 3 10 1 10 -4 0 -6 9 -11 20 -11 11 0 20 5 20 11 0 6 7
4 15 -5 8 -8 15 -20 15 -27 0 -8 3 -9 13 0 8 6 17 8 21 4 4 -4 4 0 0 10 -3 9
-11 14 -17 10 -6 -3 -7 -1 -3 6 4 6 11 9 16 6 16 -10 30 33 30 94 0 50 -3 59
-15 55 -25 -10 -40 -45 -24 -55 10 -6 10 -9 2 -9 -6 0 -15 5 -18 10 -4 6 -20
0 -39 -15 -38 -29 -46 -31 -46 -9 0 10 6 14 15 11 7 -3 24 2 37 12 21 17 21
21 9 45 -8 14 -18 23 -23 20 -6 -4 -5 -11 1 -17 6 -6 11 -16 11 -22 0 -5 -11
4 -25 20 -13 17 -24 24 -25 18 0 -24 -30 -13 -41 15 l-11 27 -19 -24 c-18 -22
-19 -22 -19 -3 0 11 -8 22 -20 25 -12 3 -20 0 -20 -7 0 -6 -10 -17 -21 -25
-19 -11 -21 -11 -16 2 8 21 -1 27 -29 17 -16 -7 -27 -5 -37 5 -11 10 -17 11
-26 2 -9 -9 -13 -6 -18 11 -4 18 -8 20 -19 11 -11 -9 -18 -8 -29 1 -8 7 -15
10 -15 7 0 -3 -13 -2 -29 3 -23 6 -34 4 -50 -11 -18 -17 -21 -18 -21 -3 0 10
-6 14 -14 11 -21 -8 -34 27 -61 168 -39 205 -73 474 -85 675 -6 102 -15 195
-20 208 -12 28 -35 28 -55 -1z"/>
<path d="M3438 5270 c-15 -24 -28 -26 -28 -5 0 8 -4 15 -10 15 -5 0 -6 -7 -3
-17 4 -11 3 -14 -5 -9 -8 5 -12 -2 -12 -19 0 -23 -2 -24 -21 -15 -36 20 -57
20 -62 -1 -3 -10 -12 -19 -21 -19 -10 0 -16 -9 -16 -25 0 -14 -4 -25 -10 -25
-5 0 -7 6 -4 14 3 8 1 17 -5 20 -6 4 -13 -5 -17 -19 -3 -14 -9 -25 -13 -26
-19 -2 -43 -8 -44 -11 -1 -2 -8 -13 -15 -25 -7 -13 -8 -23 -3 -23 17 0 4 -35
-14 -39 -25 -4 -43 -23 -45 -47 -4 -31 0 -40 9 -26 5 8 17 12 27 10 14 -2 10
-8 -19 -22 -42 -19 -77 -50 -77 -66 0 -5 -7 -10 -15 -10 -8 0 -15 -7 -15 -15
0 -8 -5 -15 -12 -15 -8 0 -9 -3 -1 -11 5 -5 8 -21 5 -35 -3 -19 -7 -22 -17
-14 -16 13 -30 -4 -19 -22 4 -6 3 -8 -2 -5 -30 18 -48 -49 -25 -92 9 -17 10
-21 1 -16 -8 5 -11 1 -8 -11 2 -11 11 -18 20 -18 10 1 14 -4 11 -11 -8 -21
-31 -25 -48 -9 -13 14 -15 13 -15 -5 0 -11 -6 -26 -14 -34 -8 -8 -14 -22 -13
-33 1 -10 -4 -18 -10 -17 -7 2 -13 0 -13 -3 0 -3 6 -12 13 -19 33 -38 37 -45
27 -45 -6 0 -8 -5 -4 -11 5 -9 -1 -10 -21 -5 -22 6 -26 4 -22 -8 4 -9 2 -16
-3 -16 -18 0 -11 -20 15 -42 14 -12 25 -28 25 -36 0 -13 -3 -12 -18 1 -25 23
-32 21 -32 -9 0 -22 -2 -24 -14 -15 -12 10 -18 6 -32 -20 -11 -23 -13 -34 -5
-37 6 -2 11 -11 10 -20 0 -11 -2 -12 -6 -4 -2 6 -9 12 -14 12 -14 0 18 -57 38
-69 16 -9 16 -12 3 -21 -8 -5 -23 -10 -32 -10 -10 0 -18 -5 -18 -11 0 -15 26
-39 34 -32 3 4 6 -3 6 -15 0 -11 -6 -27 -13 -34 -8 -7 -11 -20 -9 -28 4 -11
-1 -10 -17 4 -21 19 -21 19 -21 -5 -1 -32 -25 -75 -34 -60 -9 14 -36 -10 -36
-33 0 -9 -3 -16 -8 -16 -4 0 -20 -11 -35 -25 -21 -20 -27 -22 -27 -10 0 9 -5
13 -11 10 -6 -4 -8 -14 -4 -22 4 -13 3 -14 -9 -4 -11 10 -16 9 -23 -3 -4 -8
-12 -15 -18 -16 -55 -11 -73 -45 -22 -45 14 1 24 -2 21 -6 -2 -4 3 -10 12 -13
12 -4 15 -2 11 9 -4 8 -2 17 2 20 5 2 11 -5 14 -16 3 -12 10 -18 17 -14 6 4 9
13 6 21 -9 23 23 29 39 8 13 -18 14 -16 15 19 0 22 4 36 10 32 5 -3 18 -1 29
4 14 8 21 8 24 -2 3 -7 6 -5 6 6 1 24 18 21 26 -5 12 -43 36 -88 44 -84 4 3 5
-8 3 -25 -3 -22 0 -29 12 -29 9 0 16 7 16 15 0 8 3 15 8 15 4 0 7 -28 6 -62
-1 -56 16 -118 32 -118 3 0 14 10 25 23 l18 22 1 -27 c0 -16 3 -28 8 -28 4 0
20 -12 37 -27 16 -15 38 -29 49 -30 11 -2 25 -8 30 -13 14 -14 36 -12 32 3 -1
6 -1 9 1 5 7 -12 33 -9 33 3 0 6 7 3 16 -5 18 -19 20 -19 44 -6 11 6 21 6 24
1 11 -17 47 1 61 30 12 22 13 33 3 54 -11 26 -23 32 -32 17 -3 -5 -15 -8 -28
-7 -12 1 -31 -6 -41 -15 -10 -10 -27 -15 -42 -12 -15 2 -25 0 -25 -8 0 -7 -6
-6 -16 4 -18 19 -44 21 -44 4 0 -6 -3 -9 -6 -6 -3 4 0 16 6 28 11 21 11 22
-14 16 -26 -6 -27 -6 -20 30 6 32 4 36 -9 31 -13 -5 -16 -1 -14 16 1 17 -3 22
-20 21 -17 0 -23 5 -23 20 0 18 -2 18 -11 6 -8 -12 -9 -10 -7 10 2 17 8 24 20
22 25 -4 33 63 13 110 -16 39 -32 42 -63 11 -15 -14 -32 -9 -32 9 0 6 3 9 6 5
3 -3 26 5 50 18 24 13 41 19 38 13 -5 -7 -2 -8 5 -3 7 4 11 18 8 33 -5 28 15
86 27 75 4 -5 7 -3 5 2 -4 16 19 63 33 68 29 10 -2 18 -36 9 -32 -9 -34 -9
-24 7 9 14 18 16 49 11 44 -8 54 -3 37 18 -10 12 -9 17 10 30 12 8 22 20 22
26 0 6 9 12 20 12 11 0 20 -6 20 -14 0 -8 6 -12 13 -9 6 2 11 11 11 20 -1 13
2 14 17 7 15 -8 17 -7 13 5 -5 11 -2 13 10 9 10 -4 16 -1 16 9 0 9 -8 13 -25
12 -26 -3 -45 13 -27 24 5 3 12 15 15 26 3 13 5 9 6 -12 0 -18 5 -33 10 -33
10 0 21 59 14 76 -2 7 -20 12 -39 11 -26 -1 -34 -5 -34 -20 0 -10 -9 -21 -20
-24 -14 -4 -20 -14 -20 -32 0 -15 -9 -35 -21 -44 -27 -24 -34 -16 -9 10 18 20
18 21 0 26 -22 6 -58 -27 -41 -38 6 -3 11 -22 11 -41 0 -29 -2 -33 -14 -22 -9
9 -11 20 -5 35 7 20 5 23 -16 23 -20 0 -25 5 -25 26 0 14 4 23 10 19 6 -3 10
1 10 9 0 8 -4 18 -10 21 -5 3 -10 15 -10 26 0 10 5 19 10 19 6 0 10 -4 10 -10
0 -5 5 -10 10 -10 6 0 10 7 10 15 0 8 4 15 8 15 11 0 9 111 -2 129 -5 7 -3 18
4 24 10 9 14 9 17 0 3 -7 11 -13 18 -13 14 0 25 30 25 72 0 15 5 30 10 33 6 3
10 15 10 26 0 10 5 19 10 19 13 0 31 44 44 108 1 7 8 18 14 24 7 7 12 24 12
38 0 14 13 40 30 58 17 18 30 40 30 48 0 7 9 19 20 26 24 15 26 28 5 28 -27 0
-16 17 16 24 18 3 28 10 24 16 -8 13 14 42 25 35 12 -8 21 25 11 43 -4 9 -6
23 -3 31 2 8 -2 19 -11 26 -9 7 -12 16 -8 24 12 19 41 -25 41 -61 0 -16 5 -28
10 -28 6 0 10 9 10 20 0 11 6 20 14 20 8 0 24 12 35 26 12 15 21 23 21 18 0
-4 6 0 13 10 9 13 28 19 57 20 35 2 45 -2 58 -23 9 -13 16 -42 17 -65 0 -34 3
-41 20 -41 15 0 20 -7 22 -30 1 -22 0 -24 -4 -7 -3 16 -10 22 -20 18 -8 -3
-19 -6 -25 -6 -7 0 -8 -14 -5 -35 4 -24 1 -40 -10 -50 -10 -11 -12 -19 -5 -28
6 -7 12 -25 14 -41 1 -16 12 -34 23 -40 11 -6 23 -15 26 -20 4 -4 9 -4 13 2 3
5 -1 12 -9 16 -8 3 -15 14 -15 25 0 14 5 19 15 15 8 -4 15 -1 15 6 0 7 7 10
14 7 10 -4 13 -1 9 8 -3 8 2 18 11 21 9 3 16 13 16 21 0 11 -7 13 -25 9 -21
-5 -25 -3 -25 15 0 14 5 19 15 15 8 -3 21 2 30 10 11 11 15 12 15 3 0 -9 3
-10 11 -2 14 14 -31 81 -50 75 -8 -3 -11 0 -7 7 4 6 14 11 23 11 11 0 14 6 8
23 -4 12 -7 30 -8 40 -1 9 -9 17 -19 17 -9 0 -20 5 -23 10 -4 6 -1 9 6 8 6 -2
14 3 16 11 4 9 0 11 -16 6 -23 -7 -28 4 -9 23 8 8 9 15 2 22 -8 8 -15 6 -24
-5 -25 -30 -44 -18 -41 25 0 10 -1 11 -5 3 -8 -19 -32 -16 -56 7 -12 11 -25
20 -30 20 -4 0 -13 -9 -20 -20z"/>
<path d="M2285 5080 c-4 -6 -12 -10 -18 -9 -29 3 -37 -3 -37 -30 0 -17 -6 -31
-16 -35 -8 -3 -12 -10 -9 -16 3 -5 1 -10 -4 -10 -6 0 -11 -9 -11 -19 0 -11 -4
-22 -10 -26 -5 -3 -7 -12 -3 -20 3 -9 0 -22 -7 -30 -10 -12 -10 -15 1 -15 9
-1 6 -7 -8 -19 -20 -16 -21 -21 -8 -31 9 -8 13 -21 9 -36 -4 -15 -2 -24 5 -24
6 0 11 6 12 13 0 6 4 2 9 -10 10 -25 25 -30 36 -11 18 29 94 255 88 261 -3 2
-5 21 -6 41 -1 35 -11 46 -23 26z"/>
<path d="M3502 4854 c-12 -8 -22 -25 -22 -38 0 -12 -6 -28 -12 -35 -10 -11
-10 -13 0 -7 6 4 12 2 12 -4 0 -7 -9 -14 -20 -17 -11 -3 -17 -9 -14 -14 3 -5
-1 -7 -8 -4 -8 3 -21 -12 -34 -39 -11 -25 -17 -43 -12 -40 4 3 16 0 25 -5 16
-9 16 -10 -5 -11 -36 0 -81 -39 -88 -77 -7 -36 -13 -40 -32 -21 -9 9 -12 8
-12 -5 0 -9 -7 -17 -15 -17 -19 0 -19 -29 0 -53 14 -20 10 -51 -6 -41 -5 3 -7
10 -4 15 4 5 1 9 -4 9 -6 0 -11 -4 -11 -10 0 -5 -5 -10 -11 -10 -6 0 -9 9 -6
20 3 11 0 20 -5 20 -6 0 -8 -12 -5 -28 5 -25 3 -28 -21 -28 -22 1 -28 -4 -30
-24 -2 -20 -1 -22 7 -10 9 13 11 12 11 -6 0 -11 7 -29 15 -40 19 -25 19 -34 0
-34 -8 0 -15 -7 -15 -15 0 -8 5 -15 11 -15 5 0 8 -4 4 -9 -3 -5 -2 -11 2 -14
12 -6 44 31 33 38 -12 7 -13 26 -2 24 18 -3 32 2 32 11 0 5 -8 7 -17 4 -12 -4
-9 1 7 15 14 11 29 21 33 21 5 0 5 5 1 11 -4 8 -9 7 -15 -2 -7 -11 -9 -10 -9
4 0 9 7 17 16 17 18 0 46 25 37 34 -4 3 -2 6 3 6 6 0 16 -6 22 -12 18 -18 34
9 28 44 -3 15 -1 30 4 33 6 3 10 24 10 46 0 21 5 39 10 39 6 0 10 -12 10 -26
0 -19 4 -25 15 -20 8 3 15 1 15 -3 0 -5 -6 -11 -12 -14 -7 -2 -10 -8 -6 -12
10 -11 28 4 28 24 0 10 12 31 26 47 16 17 24 22 21 12 -4 -10 -2 -18 3 -18 18
0 20 20 5 44 -12 18 -15 35 -10 57 5 23 9 28 16 18 8 -12 11 -12 19 1 14 21
12 30 -5 30 -8 0 -15 4 -15 10 0 5 7 7 15 4 10 -4 15 0 15 11 0 14 3 15 14 6
14 -12 14 -40 1 -61 -8 -13 3 -13 18 0 7 6 21 17 32 25 20 14 20 14 -3 15 -22
0 -22 1 -7 16 9 9 14 23 11 30 -3 8 -1 14 4 14 6 0 10 -4 10 -10 0 -17 17 -11
22 8 4 15 0 17 -23 14 -20 -3 -30 1 -39 18 -7 13 -17 19 -27 16 -11 -4 -13 -2
-10 9 9 22 -7 26 -31 9z"/>
<path d="M4267 4425 c-7 -17 -38 -20 -53 -5 -5 5 -15 6 -23 1 -12 -8 -12 -14
-1 -40 14 -34 25 -39 34 -16 8 21 26 19 26 -3 0 -14 7 -18 31 -16 44 3 98 -53
69 -71 -5 -3 -10 -19 -10 -35 0 -16 -5 -32 -10 -35 -6 -4 -8 -11 -4 -16 3 -6
-4 -13 -16 -16 -15 -4 -20 -11 -17 -24 4 -14 0 -19 -15 -19 -11 0 -22 -8 -25
-19 -3 -11 -14 -22 -25 -24 -11 -3 -17 -10 -14 -16 4 -5 2 -12 -3 -16 -7 -4
-7 -15 0 -33 6 -16 6 -28 1 -30 -5 -1 -7 -13 -5 -27 7 -34 33 -20 34 19 0 17
3 25 6 19 7 -20 23 -15 23 7 0 13 5 18 15 13 9 -3 15 -2 14 3 -4 22 3 33 22
39 13 4 18 12 15 22 -4 11 -2 13 9 9 9 -3 15 0 15 9 0 8 4 15 9 15 5 0 19 11
31 23 38 39 29 147 -16 200 -13 16 -22 33 -18 38 3 5 -4 9 -15 9 -12 0 -21 7
-21 16 0 8 -5 12 -11 9 -5 -4 -18 0 -28 9 -17 15 -19 15 -24 1z"/>
<path d="M2028 4353 c-16 -20 -28 -43 -28 -50 0 -8 -11 -34 -25 -59 -15 -26
-23 -55 -21 -69 3 -15 0 -22 -7 -19 -13 5 -44 -58 -54 -107 -5 -25 -2 -29 16
-29 13 0 21 -6 21 -16 0 -13 -3 -14 -13 -5 -19 15 -43 -6 -51 -47 -5 -32 -5
-32 26 -27 27 5 29 4 19 -9 -7 -8 -19 -12 -27 -9 -8 3 -14 0 -14 -6 0 -6 0
-12 -1 -13 -8 -24 -14 -86 -8 -82 5 3 9 0 9 -5 0 -6 -7 -11 -15 -11 -11 0 -15
-9 -13 -30 1 -16 6 -30 10 -30 4 0 5 -6 2 -13 -3 -8 0 -25 5 -40 9 -23 15 -26
39 -21 24 5 30 2 35 -15 3 -12 11 -21 17 -21 7 0 10 6 7 14 -3 8 1 17 8 20 16
6 29 -9 20 -24 -3 -5 -1 -18 5 -27 11 -17 11 -17 6 0 -3 9 -1 17 4 17 6 0 10
-6 10 -14 0 -22 17 -28 40 -16 13 7 20 7 20 0 0 -5 -4 -10 -10 -10 -5 0 -10
-4 -10 -9 0 -17 41 -7 51 11 7 14 6 18 -6 18 -22 0 -18 18 6 25 28 9 36 -2 20
-26 -15 -26 -9 -34 16 -20 11 5 31 8 46 7 15 -2 33 2 41 8 20 15 25 52 7 48
-7 -1 -19 5 -27 15 -9 12 -16 14 -21 7 -12 -16 -43 -25 -43 -13 0 7 -9 9 -22
5 -40 -12 -108 -15 -108 -5 0 5 5 9 10 9 6 0 10 5 10 10 0 6 -6 10 -14 10 -8
0 -17 6 -20 13 -5 10 -7 10 -12 0 -3 -7 -10 -13 -16 -13 -6 0 -4 8 5 18 10 10
14 21 11 25 -7 7 -13 55 -17 129 -1 25 -5 50 -9 54 -14 13 -9 72 6 77 8 3 22
23 31 44 9 21 21 46 26 55 13 26 11 31 -11 25 -15 -4 -20 0 -20 13 0 11 5 22
10 25 6 3 10 -1 10 -10 0 -9 5 -15 12 -13 15 5 20 38 5 38 -6 0 -1 10 11 23
12 13 22 31 22 40 0 9 5 17 10 17 6 0 10 13 10 29 0 16 7 42 15 57 19 36 19
54 1 54 -8 0 -20 2 -28 5 -7 2 -25 -12 -40 -32z"/>
<path d="M2410 3777 c0 -7 -13 -18 -30 -24 -18 -7 -30 -18 -30 -30 0 -14 -2
-15 -9 -5 -7 11 -13 9 -29 -8 -12 -13 -27 -20 -36 -17 -9 4 -16 2 -16 -3 0 -5
-7 -6 -17 -3 -10 4 -14 2 -10 -4 4 -6 4 -13 0 -16 -5 -2 -3 -2 4 -1 13 3 26
-23 17 -37 -3 -5 2 -16 10 -25 14 -14 15 -12 12 15 -2 20 1 31 9 31 8 0 11 -8
8 -20 -5 -18 -2 -19 18 -12 13 5 26 20 29 32 6 24 30 41 30 21 0 -6 5 -11 11
-11 6 0 9 9 6 19 -4 17 -1 18 25 10 25 -7 29 -6 24 7 -3 9 -6 18 -6 20 0 2 -7
4 -15 4 -25 0 -17 17 10 22 19 4 23 2 15 -7 -7 -8 -2 -18 16 -34 15 -13 24
-17 21 -9 -2 7 -1 20 4 29 6 11 4 21 -6 29 -8 7 -15 19 -15 26 0 17 -17 18
-23 2 -4 -10 -6 -10 -6 0 -1 16 -21 16 -21 -1z"/>
<path d="M3397 3734 c-3 -3 -3 -12 -1 -19 4 -10 -1 -12 -15 -8 -14 4 -21 1
-21 -9 0 -8 -15 -19 -33 -26 -50 -18 -81 -50 -66 -68 7 -9 20 -12 33 -8 18 6
19 5 8 -9 -8 -9 -21 -13 -29 -10 -13 5 -15 2 -10 -18 4 -13 7 -36 7 -51 0 -30
14 -37 24 -12 4 10 2 13 -6 8 -8 -5 -9 -2 -5 10 4 10 7 20 7 22 0 2 5 4 10 4
6 0 10 -9 10 -20 0 -13 5 -18 15 -14 8 4 13 10 10 14 -3 5 0 10 6 12 7 2 7 12
-2 31 -10 22 -10 30 0 40 10 9 17 6 33 -15 11 -16 26 -28 33 -28 23 0 28 20 9
34 -12 9 -14 15 -6 20 7 4 12 14 12 23 0 13 -3 13 -15 3 -11 -9 -15 -9 -15 -1
0 16 43 31 52 18 3 -6 0 -17 -8 -25 -11 -11 -12 -17 -3 -28 6 -8 15 -11 20 -8
16 10 9 64 -11 84 -11 11 -20 22 -20 25 0 3 0 12 0 20 0 15 -12 20 -23 9z"/>
<path d="M2679 3344 c-2 -5 -24 -20 -49 -33 -25 -13 -62 -44 -83 -70 -85 -105
-187 -242 -187 -251 0 -6 -4 -10 -10 -10 -5 0 -10 -5 -10 -11 0 -23 -440 -609
-615 -819 -148 -178 -282 -362 -348 -477 -28 -48 -49 -73 -64 -76 -27 -5 -94
17 -105 35 -25 41 -27 43 -40 30 -8 -8 -8 -12 -1 -12 6 0 25 -13 43 -30 27
-25 60 -36 93 -31 4 0 7 -8 7 -18 0 -25 -52 -76 -104 -103 -22 -11 -43 -24
-46 -28 -8 -12 -90 -51 -139 -66 -51 -15 -157 -19 -165 -5 -3 4 13 16 35 26
22 10 42 22 45 27 4 5 -18 -3 -46 -17 -42 -21 -54 -24 -61 -13 -12 18 -11 75
1 99 6 11 7 19 1 19 -14 0 -21 -27 -21 -76 0 -24 -4 -44 -9 -44 -19 0 -82 85
-92 124 -18 65 -6 172 26 246 37 84 105 187 166 253 l48 52 1 -37 c0 -21 2
-38 6 -38 3 0 31 17 62 38 71 48 154 88 218 104 54 13 74 25 74 42 0 6 -7 3
-14 -6 -7 -10 -22 -18 -32 -18 -41 0 -169 -57 -247 -110 -25 -16 -48 -30 -51
-30 -3 0 -6 13 -6 28 0 20 13 40 48 73 128 122 232 159 302 107 55 -41 32 -79
-100 -168 -113 -76 -150 -120 -150 -178 0 -37 6 -50 33 -77 19 -19 46 -37 61
-41 64 -16 148 39 214 141 15 22 39 55 54 73 27 31 27 36 22 110 -4 42 -13 91
-21 109 -14 31 -107 124 -121 122 -4 -1 -19 -1 -34 0 -22 1 -28 6 -29 24 -1
21 -1 21 -8 -2 -6 -22 -15 -26 -73 -36 -132 -21 -338 -150 -460 -285 -34 -38
-64 -68 -66 -65 -6 6 -95 -130 -131 -200 -42 -81 -72 -189 -74 -262 0 -34 -4
-63 -8 -63 -4 0 -19 15 -34 33 -15 17 -22 23 -17 12 6 -11 22 -31 37 -45 15
-14 40 -50 55 -80 36 -70 80 -112 154 -146 133 -60 317 -19 520 116 46 31 80
48 90 44 12 -5 15 -2 10 11 -5 13 -3 16 7 13 8 -3 14 -11 14 -19 1 -27 25 -94
44 -126 31 -50 72 -66 157 -61 127 8 291 106 472 282 74 72 102 94 103 80 0
-17 1 -17 9 2 5 12 47 68 94 124 47 57 86 109 86 116 0 32 -26 22 -76 -27 -45
-45 -56 -51 -65 -39 -8 11 -9 9 -4 -9 4 -14 3 -21 -2 -18 -6 4 -15 -4 -21 -17
-15 -34 -126 -127 -224 -189 -155 -97 -272 -110 -319 -34 -33 55 -14 175 41
244 11 14 20 35 20 47 0 25 95 171 215 331 193 256 512 602 830 898 83 77 160
156 172 176 44 71 19 158 -54 181 -21 7 -41 17 -44 23 -4 5 -8 5 -10 1z"/>
<path d="M6120 2741 c-4 -18 -16 -28 -48 -39 -26 -8 -52 -27 -68 -48 -25 -33
-26 -38 -20 -122 8 -118 8 -115 21 -129 17 -17 27 -87 16 -117 -8 -19 -304
-366 -464 -543 -16 -18 -17 -25 -8 -37 9 -11 0 -25 -51 -71 -105 -96 -256
-195 -297 -195 -5 0 -11 60 -14 133 -3 72 -17 195 -31 272 -46 252 -45 356 5
419 28 36 45 33 68 -12 25 -48 65 -88 97 -96 36 -9 94 21 122 64 39 58 17 119
-61 177 -17 13 -35 34 -39 46 -4 14 -6 16 -7 6 -1 -14 -7 -16 -42 -8 -42 10
-99 4 -134 -13 -24 -13 -42 -34 -102 -120 -25 -38 -49 -68 -54 -68 -5 0 -16
-14 -24 -30 -9 -17 -20 -28 -25 -25 -6 4 -10 -3 -10 -15 0 -20 -170 -263 -243
-346 -34 -39 -41 -42 -82 -41 -39 2 -44 4 -40 22 5 18 4 18 -6 -1 -6 -12 -22
-27 -35 -33 -30 -14 -78 -88 -100 -155 -15 -48 -55 -96 -80 -96 -6 0 -16 10
-23 23 -9 17 -10 17 -5 2 13 -41 8 -50 -41 -77 -27 -15 -56 -28 -62 -28 -9 0
-13 23 -13 83 0 78 -22 249 -54 422 -28 147 -18 276 24 327 24 29 45 18 80
-43 33 -57 82 -82 131 -69 66 18 108 87 89 145 -9 28 -114 138 -122 129 -2 -1
-25 2 -53 7 -39 7 -60 6 -100 -8 -27 -9 -53 -16 -57 -15 -5 1 -8 -5 -8 -13 0
-8 -27 -52 -60 -97 l-60 -82 -1 45 -2 44 -7 -50 c-9 -64 -19 -87 -36 -81 -10
4 -14 -3 -14 -21 0 -25 -86 -152 -212 -310 -57 -71 -59 -73 -100 -70 -24 1
-45 5 -48 9 -3 4 -27 -11 -52 -33 -39 -33 -53 -55 -80 -125 -23 -61 -40 -91
-61 -106 -24 -17 -31 -18 -38 -7 -7 10 -8 7 -7 -11 3 -22 -7 -30 -85 -69 -74
-38 -97 -45 -147 -46 -52 0 -62 4 -89 29 -39 37 -39 52 1 93 30 31 31 33 9 33
-12 0 -20 -4 -17 -9 3 -5 -1 -14 -10 -21 -13 -11 -14 -9 -11 23 8 67 139 218
409 467 71 65 118 136 118 178 0 42 -44 91 -90 101 -33 7 -35 8 -33 51 l1 45
-6 -40 c-6 -33 -13 -43 -44 -57 -20 -10 -46 -31 -58 -48 -22 -32 -40 -39 -40
-17 0 26 -55 66 -107 77 -34 8 -53 17 -56 28 -4 13 -5 12 -6 -4 -1 -17 -10
-23 -43 -28 -120 -19 -281 -96 -428 -204 -181 -133 -417 -405 -470 -542 -23
-59 -74 -114 -98 -105 -12 5 -13 3 -2 -10 12 -14 16 -13 41 11 16 15 31 25 34
22 3 -3 1 -25 -4 -49 -5 -24 -6 -48 -2 -54 5 -5 11 -23 15 -38 10 -42 82 -115
125 -127 110 -30 241 12 393 127 31 24 60 43 65 43 4 0 23 16 41 35 33 36 37
32 26 -24 -6 -29 -10 -32 -33 -27 l-26 6 26 -15 c18 -10 28 -25 32 -50 7 -45
40 -91 80 -111 91 -48 296 34 481 191 74 62 84 62 110 1 31 -71 73 -114 152
-153 71 -35 85 -38 178 -41 84 -3 112 0 166 18 78 26 230 110 332 183 68 49
126 78 113 57 -3 -5 -1 -11 4 -14 4 -3 21 -30 35 -61 36 -72 77 -112 156 -149
62 -29 71 -31 190 -31 l125 0 98 47 c162 79 312 186 471 337 78 75 157 152
174 172 30 34 31 37 12 42 -11 3 -20 9 -20 15 0 5 98 108 218 230 147 151 226
224 245 228 35 8 101 -20 128 -54 67 -86 -27 -207 -414 -533 -51 -43 -60 -28
-12 21 38 39 63 53 50 28 -4 -7 6 3 21 22 16 19 29 39 29 45 1 5 6 9 11 8 6
-1 26 14 45 34 19 20 28 33 22 29 -7 -4 -13 -3 -13 2 0 16 100 103 110 97 6
-4 10 -3 9 2 -3 19 2 33 12 33 5 0 7 -6 3 -12 -4 -7 5 -2 19 11 15 14 25 26
23 28 -2 2 10 17 26 34 17 16 27 33 23 37 -4 4 -106 -94 -226 -217 -176 -179
-217 -226 -208 -237 13 -16 -24 -67 -118 -165 -48 -49 -52 -57 -38 -69 13 -11
15 -10 10 2 -3 8 3 23 15 33 18 17 20 17 20 1 0 -10 -5 -27 -11 -38 -7 -13 -8
-23 -1 -27 5 -3 13 -20 16 -38 4 -17 25 -52 47 -77 80 -90 195 -94 364 -11 50
24 121 69 160 99 48 38 73 52 81 45 8 -7 11 -5 10 7 0 9 5 19 13 22 10 3 13
-3 9 -27 -3 -18 -1 -34 4 -37 4 -3 15 -22 23 -42 55 -130 164 -175 320 -133
142 39 251 108 397 249 73 71 78 75 105 64 55 -21 109 -23 182 -6 61 13 75 14
82 3 7 -11 9 -11 9 2 0 15 108 94 117 86 2 -2 -4 -20 -12 -40 -8 -20 -15 -45
-15 -56 0 -24 -12 -32 -50 -33 -17 -1 -30 -5 -30 -11 0 -6 16 -7 40 -3 l40 6
1 -37 c1 -21 1 -41 0 -46 -2 -14 30 -81 55 -114 51 -67 155 -96 255 -73 74 17
209 81 282 134 34 24 97 79 140 121 l78 77 32 -13 c18 -8 65 -13 105 -13 39 0
72 -3 72 -7 0 -5 15 -16 33 -25 17 -9 33 -18 35 -19 2 -2 -11 -28 -29 -59 -25
-45 -30 -64 -26 -93 8 -44 29 -69 73 -83 55 -19 106 13 189 117 255 318 537
628 658 723 l27 21 0 -23 c0 -43 -57 -115 -220 -277 -88 -87 -160 -164 -160
-171 0 -7 20 10 44 36 24 27 94 99 156 159 129 127 173 183 191 244 10 33 22
49 53 69 74 46 156 39 156 -15 0 -29 -52 -111 -127 -199 -187 -223 -248 -294
-255 -294 -5 0 -8 7 -8 15 0 8 -3 15 -7 14 -8 0 -182 -200 -209 -238 -12 -16
-11 -20 1 -24 8 -4 12 -1 9 6 -5 14 182 234 194 229 11 -6 4 -20 -36 -75 -74
-101 -102 -160 -102 -216 0 -29 5 -61 10 -72 15 -26 62 -49 104 -49 102 0 194
86 506 470 79 96 154 186 167 200 l25 25 -13 -25 c-10 -21 -63 -94 -79 -110
-28 -28 -101 -122 -98 -125 2 -3 29 25 59 61 30 36 62 76 72 87 10 12 35 49
54 82 41 68 173 205 246 254 64 43 117 51 146 22 16 -16 20 -29 15 -44 -10
-34 -72 -111 -198 -247 -64 -69 -142 -158 -174 -199 -31 -40 -87 -110 -124
-156 -38 -46 -68 -88 -68 -93 0 -5 11 -15 25 -22 14 -8 28 -25 32 -39 9 -41
42 -94 71 -116 22 -16 42 -20 112 -20 77 0 93 4 170 39 141 63 294 174 466
338 136 131 200 206 185 221 -9 9 -36 -13 -114 -90 -131 -130 -227 -202 -343
-260 -103 -51 -180 -65 -234 -43 -72 30 -43 104 113 297 233 288 299 396 301
493 1 65 -20 101 -76 127 -30 15 -38 24 -39 48 l-2 30 -4 -27 c-4 -23 -9 -28
-33 -28 -68 0 -175 -70 -315 -206 -37 -35 -166 -179 -265 -294 -254 -296 -300
-348 -334 -377 -39 -35 -76 -42 -96 -18 -28 34 17 101 209 315 135 149 231
283 258 361 16 43 21 49 40 44 12 -3 25 -1 28 5 4 6 -1 7 -11 3 -14 -5 -16 -2
-11 16 4 18 3 20 -8 11 -10 -9 -15 -4 -20 20 -9 39 -46 84 -85 100 -22 9 -30
19 -31 39 0 25 0 25 -9 4 -6 -15 -18 -23 -34 -23 -31 0 -129 -38 -153 -59 -10
-9 -54 -46 -99 -83 -93 -77 -225 -217 -473 -501 -172 -197 -225 -244 -237
-212 -14 36 139 229 347 437 175 176 229 244 229 289 0 15 5 31 11 34 6 5 3
13 -10 22 -12 8 -21 20 -21 26 0 13 -8 14 -75 17 -19 1 -35 6 -35 12 0 24 -91
-59 -130 -120 -25 -37 -43 -69 -41 -71 1 -2 -10 -12 -26 -22 -15 -10 -23 -19
-17 -19 5 0 16 6 24 13 16 14 14 11 -94 -160 -85 -136 -173 -226 -260 -267
-28 -13 -53 -23 -55 -21 -2 3 10 39 27 82 17 43 33 92 36 108 3 17 9 41 12 54
5 16 3 22 -3 18 -6 -4 -14 -28 -18 -54 -7 -50 -55 -178 -81 -218 -24 -36 -108
-51 -163 -29 -22 9 -41 21 -41 27 0 5 15 33 34 61 170 257 193 495 59 590 -38
26 -137 67 -118 48 3 -3 -28 -12 -70 -19 -42 -7 -94 -22 -116 -34 -23 -11 -43
-18 -45 -16 -9 9 9 116 20 120 6 2 -2 2 -19 -1 -16 -2 -47 -11 -67 -19 l-38
-15 0 -70 c0 -77 0 -77 -102 -156 -68 -53 -133 -120 -222 -231 -71 -87 -130
-150 -181 -189 -42 -33 -101 -62 -109 -55 -4 4 -13 -3 -21 -14 -31 -44 -185
-50 -201 -8 -3 7 20 57 52 111 90 152 116 230 118 344 1 87 -1 99 -27 142 -15
26 -36 52 -47 58 -10 5 -26 17 -35 26 -11 11 -34 16 -75 16 -209 0 -442 -145
-658 -412 -47 -58 -90 -109 -96 -115 -14 -12 -76 -116 -105 -172 -20 -41 -112
-121 -132 -116 -5 2 -9 -3 -9 -11 0 -21 -133 -86 -188 -93 -90 -10 -149 43
-121 109 7 18 84 106 171 195 162 166 225 249 253 332 33 100 18 153 -62 218
-115 94 -123 103 -123 142 0 21 11 70 25 110 22 61 24 78 15 111 -11 42 -60
90 -90 90 -14 0 -20 9 -22 33 -3 28 -4 29 -8 8z m-3020 -513 c0 -10 2 -10 8 0
14 22 72 3 93 -31 21 -36 17 -47 -19 -47 -15 0 -47 -7 -71 -16 -24 -8 -50 -13
-57 -10 -13 5 -30 -11 -22 -19 2 -3 33 4 69 15 35 11 76 20 92 20 22 0 27 -4
27 -25 0 -14 -6 -27 -12 -29 -77 -22 -115 -38 -184 -81 -45 -27 -96 -67 -114
-87 -18 -21 -30 -38 -29 -38 2 0 29 24 60 53 75 70 259 161 259 128 0 -7 -37
-74 -82 -149 -87 -143 -170 -236 -338 -381 l-75 -65 -6 30 c-6 28 -7 27 -8 -8
-1 -35 -5 -40 -51 -63 -94 -48 -162 -27 -196 60 -37 99 18 239 169 423 105
130 294 273 411 314 61 21 76 22 76 6z m983 -166 c4 -94 3 -161 -2 -157 -5 3
-19 -11 -31 -31 -12 -19 -65 -90 -116 -157 -72 -93 -93 -126 -88 -141 17 -53
-1 -108 -62 -183 -38 -47 -40 -53 -18 -53 8 0 13 4 10 9 -4 5 5 23 19 39 59
70 81 141 61 192 -4 10 12 38 42 75 26 33 77 98 112 145 l65 85 3 -61 c3 -72
-37 -203 -91 -293 -39 -66 -121 -158 -148 -166 -10 -4 -17 -10 -14 -15 8 -14
-75 -58 -122 -66 -26 -4 -54 -2 -71 5 -29 12 -62 57 -62 85 0 27 37 92 101
178 65 88 74 111 66 166 -6 34 0 45 110 191 124 166 128 171 167 214 14 15 26
33 26 38 0 11 32 71 36 66 0 -1 4 -75 7 -165z m959 -170 c-11 -9 -66 -80 -123
-157 -102 -136 -104 -141 -96 -176 11 -42 -10 -96 -68 -171 -20 -27 -32 -48
-26 -48 7 0 15 8 18 18 4 9 19 33 34 52 42 53 61 106 54 150 -6 36 -2 44 100
179 59 78 111 143 115 146 11 7 4 -96 -10 -159 -29 -124 -147 -316 -221 -358
-17 -9 -25 -18 -18 -20 21 -7 -90 -59 -139 -65 -42 -5 -52 -2 -80 22 -26 22
-32 34 -32 66 0 49 12 72 88 172 67 88 85 133 72 178 -8 28 -1 40 101 175 60
80 114 154 119 165 6 11 15 17 19 15 4 -3 15 10 24 29 9 19 21 35 27 35 5 0
10 8 10 18 0 10 8 29 18 42 17 24 17 21 25 -133 7 -148 6 -159 -11 -175z
m2230 316 c7 -7 20 -14 28 -16 26 -6 34 -21 16 -28 -11 -4 -22 -1 -27 7 -7 11
-9 11 -9 -3 0 -24 46 -24 58 -1 9 15 13 12 31 -18 24 -38 29 -136 11 -201
l-11 -37 -45 21 c-66 29 -107 19 -164 -40 -96 -101 -124 -208 -78 -301 l25
-51 -31 -23 c-100 -76 -197 -117 -278 -117 -46 0 -48 1 -48 28 0 31 26 110 43
131 10 11 9 13 -2 10 -17 -6 -49 -91 -50 -131 -1 -34 -17 -35 -62 -5 -96 65
-68 226 78 450 74 112 176 220 248 263 102 60 236 91 267 62z m1215 -8 c21
-11 43 -20 50 -20 8 0 22 -15 33 -32 23 -38 27 -137 9 -201 -10 -38 -11 -38
-34 -23 -13 9 -42 18 -64 22 -71 11 -142 -50 -197 -170 -34 -75 -35 -121 -2
-185 l27 -50 -37 -29 c-58 -45 -105 -71 -168 -92 -60 -21 -150 -27 -139 -10 3
6 2 10 -4 10 -5 0 -12 10 -14 23 -4 19 -4 18 -6 -5 -1 -33 -13 -35 -56 -8 -61
38 -78 121 -45 220 43 127 155 309 244 399 l23 23 -5 -73 -5 -72 37 28 c47 36
52 46 61 122 9 80 24 94 145 128 65 19 105 18 147 -5z"/>
<path d="M8425 2042 c-79 -27 -144 -70 -216 -141 -111 -112 -129 -140 -138
-223 -5 -40 -7 -75 -5 -77 2 -2 17 5 34 16 28 18 32 27 35 72 7 97 30 151 89
213 30 31 64 59 75 63 12 3 21 10 21 14 0 8 72 41 129 60 25 8 37 8 41 0 5 -7
9 -5 13 5 8 21 -14 20 -78 -2z"/>
<path d="M7989 953 c-6 -16 -9 -67 -7 -118 4 -77 9 -99 37 -154 94 -185 333
-318 741 -415 58 -14 123 -28 145 -31 22 -4 74 -13 115 -20 199 -38 943 -100
1060 -89 19 2 141 8 270 14 198 9 443 27 760 55 179 17 778 98 816 111 26 10
64 45 64 60 0 7 -9 18 -19 24 -38 20 -697 11 -1561 -21 -250 -10 -356 -10
-460 -1 -74 7 -196 17 -270 22 -374 28 -733 78 -942 130 -409 104 -591 203
-653 358 -41 103 -75 129 -96 75z"/>
</g>
</svg>
